{
.appVersion = "1231";
DisplayStrings = (
"Egone quaeris inquit quid sentiam quos bonos viros fortes iustos moderatos aut audivimus in re publica fuisse aut ipsi vidimus qui sine ulla doctrina naturam ipsam secuti multa laudabilia fecerunt eos melius a natura institutos fuisse quam institui potuissent a philosophia si ullam aliam probavissent praeter eam quae nihil aliud in bonis haberet nisi honestum nihil nisi turpe in malis ceterae philosophorum disciplinae omnino alia magis alia sed tamen omnes quae rem ullam virtutis expertem aut in bonis aut in malis numerent eas non modo nihil adiuvare arbitror neque firmare quo meliores simus sed ipsam depravare naturam. nam nisi hoc optineatur id solum bonum esse quod honestum sit nullo modo probari possit beatam vitam virtute effici. quod si ita sit cur opera philosophiae sit danda nescio. si enim sapiens aliquis miser esse possit ne ego istam gloriosam memorabilemque virtutem non magno aestimandam putem.",
"ABCDEFGHIJ\012KLMNOPQ/Q.ss01 \012/Q_strok R/R_rot_ring STUVW\012XYZaa/a_macr bc/c_dieresis/c_t d/d_strok e/e_macr \012f/f_f/f_l ghi/i_dieresis/i_macr jkl/l_strok mn/n_macr o/o_macr ö\012p/p_bardes/p_flour/p_macr q/q_acute/q_bardes/q_dieresis/q_etfin/q_bardes_dieresis/q_strok r/r.ss01 \012/r_rot_c_dieresis s/s_dieresis/longs/longs_i/longs_longs/longs_t t/t_macr u/u_macr v/v_strok wx\012yz&/con/etfin/etfin/etfin_ring/rum §./bardes/macr"
);
classes = (
{
automatic = 1;
code = "A B C D E F G H I J K L M N O P Q Q.ss01 Q_strok R R_rot_ring S T U V W X Y Z a a_macr b c c_dieresis c_t d d_strok e e_macr f f_f f_l g h i i_dieresis i_macr j k l l_strok m n n_macr o o_macr o_dieresis p p_bardes p_flour p_macr q q_acute q_bardes q_dieresis q_etfin q_bardes_dieresis q_strok r r.ss01 r_rot_c_dieresis s s_dieresis longs longs_i longs_longs longs_t t t_macr u u_macr v v_strok w x y z con etfin rum";
name = AllLetters;
}
);
copyright = "Copyright (c) 2019 ANRT. All rights reserved.";
customParameters = (
{
name = glyphOrder;

glyphs = (
{
color = 3;
glyphname = A;
lastChange = "2019-04-20 12:14:17 +0000";
layers = (
{
layerId = "376BBDDA-9D91-4870-B0ED-D827125DC94B";
paths = (
{
closed = 1;
nodes = (
"512 359 LINE",
"266 359 LINE",
"238 287 LINE",
"540 287 LINE"
);
},
{
closed = 1;
nodes = (
"465 477 OFFCURVE",
"534 279 OFFCURVE",
"579 157 CURVE SMOOTH",
"615 59 OFFCURVE",
"615 57 OFFCURVE",
"560 25 CURVE",
"560 -3 LINE",
"610 0 OFFCURVE",
"736 1 OFFCURVE",
"781 -3 CURVE",
"781 35 LINE",
"745 42 OFFCURVE",
"742 40 OFFCURVE",
"726 75 CURVE SMOOTH",
"618 311 OFFCURVE",
"481 622 OFFCURVE",
"455 700 CURVE",
"368 700 LINE",
"336 611 OFFCURVE",
"190 314 OFFCURVE",
"86 116 CURVE SMOOTH",
"53 53 OFFCURVE",
"50 49 OFFCURVE",
"5 15 CURVE",
"5 -15 LINE",
"55 -6 OFFCURVE",
"163 1 OFFCURVE",
"194 -3 CURVE",
"194 32 LINE",
"152 40 OFFCURVE",
"150 44 OFFCURVE",
"156 61 CURVE SMOOTH",
"229 268 OFFCURVE",
"310 467 OFFCURVE",
"407 671 CURVE",
"382 672 LINE"
);
}
);
width = 815;
}
);
leftKerningGroup = A;
unicode = 0041;
},
{
color = 3;
glyphname = B;
lastChange = "2019-04-24 15:33:41 +0000";
layers = (
{
background = {
components = (
{
name = H;
transform = "{1, 0, 0, 1, 13, 0}";
}
);
};
layerId = "376BBDDA-9D91-4870-B0ED-D827125DC94B";
paths = (
{
closed = 1;
nodes = (
"400 412 OFFCURVE",
"435 429 OFFCURVE",
"490 446 CURVE",
"524 472 OFFCURVE",
"537 513 OFFCURVE",
"537 553 CURVE SMOOTH",
"537 653 OFFCURVE",
"461 703 OFFCURVE",
"368 703 CURVE SMOOTH",
"298 703 OFFCURVE",
"218 700 OFFCURVE",
"174 700 CURVE SMOOTH",
"133 700 OFFCURVE",
"86 702 OFFCURVE",
"46 703 CURVE",
"46 668 LINE",
"120 653 OFFCURVE",
"125 660 OFFCURVE",
"124 607 CURVE SMOOTH",
"117 98 LINE SMOOTH",
"116 42 OFFCURVE",
"116 42 OFFCURVE",
"40 32 CURVE",
"41 -3 LINE",
"83 -1 OFFCURVE",
"113 0 OFFCURVE",
"170 0 CURVE SMOOTH",
"211 0 OFFCURVE",
"323 -3 OFFCURVE",
"388 -3 CURVE SMOOTH",
"487 -3 OFFCURVE",
"583 53 OFFCURVE",
"583 183 CURVE SMOOTH",
"583 335 OFFCURVE",
"460 375 OFFCURVE",
"356 384 CURVE"
);
},
{
closed = 1;
nodes = (
"439 446 OFFCURVE",
"352 395 OFFCURVE",
"215 395 CURVE",
"215 661 LINE",
"342 678 OFFCURVE",
"439 651 OFFCURVE",
"439 543 CURVE SMOOTH"
);
},
{
closed = 1;
nodes = (
"252 32 OFFCURVE",
"215 55 OFFCURVE",
"215 134 CURVE SMOOTH",
"215 348 LINE",
"340 355 OFFCURVE",
"483 324 OFFCURVE",
"483 183 CURVE SMOOTH",
"483 91 OFFCURVE",
"429 32 OFFCURVE",
"328 32 CURVE SMOOTH"
);
}
);
width = 621;
}
);
leftMetricsKey = "=H";
unicode = 0042;
},
{
color = 3;
glyphname = C;
lastChange = "2019-04-24 15:33:41 +0000";
layers = (
{
layerId = "376BBDDA-9D91-4870-B0ED-D827125DC94B";
paths = (
{
closed = 1;
nodes = (
"605 81 OFFCURVE",
"508 30 OFFCURVE",
"417 30 CURVE SMOOTH",
"247 30 OFFCURVE",
"144 191 OFFCURVE",
"144 354 CURVE SMOOTH",
"144 511 OFFCURVE",
"245 669 OFFCURVE",
"414 669 CURVE SMOOTH",
"497 669 OFFCURVE",
"581 643 OFFCURVE",
"617 606 CURVE",
"621 606 LINE",
"664 701 LINE",
"635 712 LINE",
"602 675 LINE",
"556 691 OFFCURVE",
"483 710 OFFCURVE",
"410 710 CURVE SMOOTH",
"201 710 OFFCURVE",
"40 577 OFFCURVE",
"40 344 CURVE SMOOTH",
"40 113 OFFCURVE",
"224 -10 OFFCURVE",
"415 -10 CURVE SMOOTH",
"511 -10 OFFCURVE",
"598 19 OFFCURVE",
"669 70 CURVE",
"639 131 LINE",
"627 132 LINE"
);
}
);
width = 713;
}
);
leftMetricsKey = "=O";
unicode = 0043;
},
{
color = 3;
glyphname = D;
lastChange = "2019-04-24 15:33:41 +0000";
layers = (
{
layerId = "376BBDDA-9D91-4870-B0ED-D827125DC94B";
paths = (
{
closed = 1;
nodes = (
"242 703 OFFCURVE",
"210 700 OFFCURVE",
"158 700 CURVE SMOOTH",
"114 700 OFFCURVE",
"47 703 OFFCURVE",
"25 705 CURVE",
"17 670 LINE",
"62 642 OFFCURVE",
"66 632 OFFCURVE",
"72 544 CURVE SMOOTH",
"75 498 OFFCURVE",
"72 278 OFFCURVE",
"68 109 CURVE SMOOTH",
"67 66 OFFCURVE",
"61 56 OFFCURVE",
"31 14 CURVE",
"47 -12 LINE",
"125 13 OFFCURVE",
"209 0 OFFCURVE",
"360 0 CURVE SMOOTH",
"602 0 OFFCURVE",
"749 155 OFFCURVE",
"749 355 CURVE SMOOTH",
"749 575 OFFCURVE",
"594 703 OFFCURVE",
"384 703 CURVE SMOOTH"
);
},
{
closed = 1;
nodes = (
"643 109 OFFCURVE",
"511 11 OFFCURVE",
"167 42 CURVE",
"167 664 LINE",
"438 683 OFFCURVE",
"643 615 OFFCURVE",
"643 350 CURVE SMOOTH"
);
}
);
width = 786;
}
);
unicode = 0044;
},
{
color = 3;
glyphname = E;
lastChange = "2019-04-24 15:33:41 +0000";
layers = (
{
layerId = "376BBDDA-9D91-4870-B0ED-D827125DC94B";
paths = (
{
closed = 1;
nodes = (
"202 340 LINE",
"395 340 LINE SMOOTH",
"491 340 OFFCURVE",
"498 316 OFFCURVE",
"515 240 CURVE",
"548 243 LINE",
"543 316 OFFCURVE",
"540 391 OFFCURVE",
"546 473 CURVE",
"511 473 LINE",
"502 405 OFFCURVE",
"506 380 OFFCURVE",
"406 380 CURVE SMOOTH",
"202 380 LINE"
);
},
{
closed = 1;
nodes = (
"212 223 OFFCURVE",
"211 438 OFFCURVE",
"219 660 CURVE",
"406 660 LINE SMOOTH",
"526 660 OFFCURVE",
"526 657 OFFCURVE",
"556 588 CURVE",
"586 591 LINE",
"586 754 LINE",
"556 754 LINE",
"551 706 OFFCURVE",
"551 700 OFFCURVE",
"444 700 CURVE SMOOTH",
"230 700 OFFCURVE",
"109 702 OFFCURVE",
"44 705 CURVE",
"41 670 LINE",
"118 660 OFFCURVE",
"116 660 OFFCURVE",
"121 545 CURVE SMOOTH",
"123 498 OFFCURVE",
"126 296 OFFCURVE",
"120 156 CURVE SMOOTH",
"115 45 OFFCURVE",
"117 45 OFFCURVE",
"40 37 CURVE",
"40 -3 LINE",
"92 -1 OFFCURVE",
"142 0 OFFCURVE",
"198 0 CURVE SMOOTH",
"322 0 OFFCURVE",
"454 -1 OFFCURVE",
"600 -3 CURVE",
"600 127 LINE",
"566 127 LINE",
"560 64 OFFCURVE",
"537 40 OFFCURVE",
"442 40 CURVE SMOOTH",
"223 40 LINE"
);
}
);
width = 640;
}
);
leftMetricsKey = "=H";
unicode = 0045;
},
{
color = 3;
glyphname = F;
lastChange = "2019-04-22 14:51:06 +0000";
layers = (
{
layerId = "376BBDDA-9D91-4870-B0ED-D827125DC94B";
paths = (
{
closed = 1;
nodes = (
"219 311 LINE",
"418 311 LINE SMOOTH",
"495 311 OFFCURVE",
"495 312 OFFCURVE",
"509 273 CURVE",
"540 273 LINE",
"535 326 OFFCURVE",
"536 361 OFFCURVE",
"539 425 CURVE",
"511 425 LINE",
"497 351 OFFCURVE",
"490 351 OFFCURVE",
"421 351 CURVE SMOOTH",
"219 351 LINE"
);
},
{
closed = 1;
nodes = (
"228 311 OFFCURVE",
"229 486 OFFCURVE",
"231 660 CURVE",
"388 660 LINE SMOOTH",
"498 660 OFFCURVE",
"511 641 OFFCURVE",
"518 573 CURVE",
"548 573 LINE",
"548 700 LINE",
"183 700 LINE SMOOTH",
"137 700 OFFCURVE",
"99 701 OFFCURVE",
"42 703 CURVE",
"40 668 LINE",
"135 664 LINE",
"140 493 OFFCURVE",
"137 235 OFFCURVE",
"134 137 CURVE SMOOTH",
"131 52 OFFCURVE",
"130 47 OFFCURVE",
"97 22 CURVE",
"97 -3 LINE",
"153 0 OFFCURVE",
"227 1 OFFCURVE",
"267 -3 CURVE",
"267 22 LINE",
"232 48 OFFCURVE",
"232 51 OFFCURVE",
"231 137 CURVE SMOOTH"
);
}
);
width = 588;
}
);
leftMetricsKey = "=H";
unicode = 0046;
},
{
color = 3;
glyphname = G;
lastChange = "2019-04-24 15:33:41 +0000";
layers = (
{
layerId = "376BBDDA-9D91-4870-B0ED-D827125DC94B";
paths = (
{
closed = 1;
nodes = (
"522 26 OFFCURVE",
"575 62 OFFCURVE",
"611 92 CURVE",
"611 215 LINE SMOOTH",
"611 305 OFFCURVE",
"609 305 OFFCURVE",
"505 310 CURVE",
"505 345 LINE",
"602 344 OFFCURVE",
"661 344 OFFCURVE",
"729 347 CURVE",
"729 312 LINE",
"703 306 OFFCURVE",
"703 304 OFFCURVE",
"703 244 CURVE SMOOTH",
"703 193 OFFCURVE",
"702 142 OFFCURVE",
"710 91 CURVE",
"635 29 OFFCURVE",
"543 -10 OFFCURVE",
"425 -10 CURVE SMOOTH",
"215 -10 OFFCURVE",
"40 102 OFFCURVE",
"40 354 CURVE SMOOTH",
"40 567 OFFCURVE",
"191 710 OFFCURVE",
"420 710 CURVE SMOOTH",
"520 710 OFFCURVE",
"602 687 OFFCURVE",
"675 646 CURVE",
"672 434 LINE",
"632 434 LINE",
"632 568 OFFCURVE",
"544 675 OFFCURVE",
"411 675 CURVE SMOOTH",
"219 675 OFFCURVE",
"146 525 OFFCURVE",
"146 354 CURVE SMOOTH",
"146 146 OFFCURVE",
"237 26 OFFCURVE",
"420 26 CURVE SMOOTH"
);
}
);
width = 768;
}
);
leftMetricsKey = "=O";
unicode = 0047;
},
{
color = 3;
glyphname = H;
lastChange = "2019-04-24 15:33:41 +0000";
layers = (
{
guideLines = (
{
angle = 270;
position = "{38, 684}";
}
);
layerId = "376BBDDA-9D91-4870-B0ED-D827125DC94B";
paths = (
{
closed = 1;
nodes = (
"191 332 LINE",
"713 332 LINE",
"713 372 LINE",
"191 372 LINE"
);
},
{
closed = 1;
nodes = (
"693 74 LINE SMOOTH",
"693 43 OFFCURVE",
"692 42 OFFCURVE",
"611 31 CURVE",
"611 -3 LINE",
"675 -1 OFFCURVE",
"786 0 OFFCURVE",
"826 -3 CURVE",
"826 31 LINE",
"789 43 OFFCURVE",
"789 43 OFFCURVE",
"789 67 CURVE SMOOTH",
"789 225 OFFCURVE",
"787 449 OFFCURVE",
"787 632 CURVE SMOOTH",
"787 663 OFFCURVE",
"787 662 OFFCURVE",
"861 667 CURVE",
"861 703 LINE",
"782 700 OFFCURVE",
"627 700 OFFCURVE",
"547 703 CURVE",
"547 666 LINE",
"693 659 OFFCURVE",
"693 659 OFFCURVE",
"693 618 CURVE SMOOTH"
);
},
{
closed = 1;
nodes = (
"213 626 LINE SMOOTH",
"213 657 OFFCURVE",
"214 658 OFFCURVE",
"237 669 CURVE",
"237 703 LINE",
"231 701 OFFCURVE",
"120 701 OFFCURVE",
"40 704 CURVE",
"40 670 LINE",
"117 658 OFFCURVE",
"117 658 OFFCURVE",
"117 634 CURVE SMOOTH",
"117 476 OFFCURVE",
"119 252 OFFCURVE",
"119 69 CURVE SMOOTH",
"119 38 OFFCURVE",
"118 38 OFFCURVE",
"85 34 CURVE",
"85 -2 LINE",
"124 1 OFFCURVE",
"270 0 OFFCURVE",
"320 -3 CURVE",
"320 34 LINE",
"205 40 OFFCURVE",
"213 41 OFFCURVE",
"213 82 CURVE SMOOTH"
);
}
);
width = 901;
}
);
unicode = 0048;
},
{
color = 3;
glyphname = I;
lastChange = "2019-04-24 15:33:41 +0000";
layers = (
{
layerId = "376BBDDA-9D91-4870-B0ED-D827125DC94B";
paths = (
{
closed = 1;
nodes = (
"198 626 LINE SMOOTH",
"198 657 OFFCURVE",
"199 658 OFFCURVE",
"290 669 CURVE",
"290 703 LINE",
"216 701 OFFCURVE",
"115 700 OFFCURVE",
"45 703 CURVE",
"45 669 LINE",
"112 657 OFFCURVE",
"102 657 OFFCURVE",
"102 633 CURVE SMOOTH",
"104 88 LINE SMOOTH",
"104 37 OFFCURVE",
"103 37 OFFCURVE",
"40 33 CURVE",
"40 -3 LINE",
"119 0 OFFCURVE",
"194 2 OFFCURVE",
"275 -3 CURVE",
"275 34 LINE",
"199 40 OFFCURVE",
"198 41 OFFCURVE",
"198 82 CURVE SMOOTH"
);
}
);
width = 349;
}
);
leftMetricsKey = H;
unicode = 0049;
},
{
color = 6;
glyphname = J;
lastChange = "2019-03-12 17:21:06 +0000";
layers = (
{
layerId = "376BBDDA-9D91-4870-B0ED-D827125DC94B";
paths = (
{
closed = 1;
nodes = (
"205 666 LINE",
"331 659 OFFCURVE",
"321 659 OFFCURVE",
"321 618 CURVE SMOOTH",
"321 205 LINE SMOOTH",
"321 98 OFFCURVE",
"272 52 OFFCURVE",
"188 52 CURVE SMOOTH",
"114 52 OFFCURVE",
"68 94 OFFCURVE",
"39 195 CURVE",
"5 183 LINE",
"30 90 OFFCURVE",
"76 -10 OFFCURVE",
"217 -10 CURVE SMOOTH",
"334 -10 OFFCURVE",
"414 65 OFFCURVE",
"414 205 CURVE SMOOTH",
"414 299 OFFCURVE",
"415 449 OFFCURVE",
"415 632 CURVE SMOOTH",
"415 663 OFFCURVE",
"425 662 OFFCURVE",
"499 667 CURVE",
"499 703 LINE",
"420 700 OFFCURVE",
"265 700 OFFCURVE",
"205 703 CURVE"
);
}
);
width = 519;
}
);
unicode = 004A;
},
{
color = 6;
glyphname = K;
lastChange = "2019-03-12 17:21:06 +0000";
layers = (
{
layerId = "376BBDDA-9D91-4870-B0ED-D827125DC94B";
paths = (
{
closed = 1;
nodes = (
"485 564 LINE SMOOTH",
"571 631 OFFCURVE",
"596 656 OFFCURVE",
"669 663 CURVE",
"669 703 LINE",
"590 701 OFFCURVE",
"511 701 OFFCURVE",
"432 703 CURVE",
"432 669 LINE",
"493 661 OFFCURVE",
"507 650 OFFCURVE",
"447 599 CURVE SMOOTH",
"198 389 LINE",
"198 339 LINE"
);
},
{
closed = 1;
nodes = (
"199 626 LINE SMOOTH",
"199 657 OFFCURVE",
"200 658 OFFCURVE",
"311 669 CURVE",
"311 703 LINE",
"217 701 OFFCURVE",
"116 700 OFFCURVE",
"36 703 CURVE",
"36 669 LINE",
"113 657 OFFCURVE",
"103 657 OFFCURVE",
"103 633 CURVE SMOOTH",
"105 68 LINE SMOOTH",
"105 37 OFFCURVE",
"114 37 OFFCURVE",
"41 33 CURVE",
"41 -3 LINE",
"120 0 OFFCURVE",
"265 0 OFFCURVE",
"315 -3 CURVE",
"315 34 LINE",
"200 40 OFFCURVE",
"199 41 OFFCURVE",
"199 82 CURVE SMOOTH"
);
},
{
closed = 1;
nodes = (
"183 348 LINE",
"450 108 LINE SMOOTH",
"507 57 OFFCURVE",
"486 37 OFFCURVE",
"451 34 CURVE",
"451 -3 LINE",
"536 0 OFFCURVE",
"620 0 OFFCURVE",
"705 -3 CURVE",
"705 34 LINE",
"629 42 OFFCURVE",
"617 70 OFFCURVE",
"542 141 CURVE SMOOTH",
"269 402 LINE"
);
}
);
width = 735;
}
);
unicode = 004B;
},
{
color = 3;
glyphname = L;
lastChange = "2019-04-24 15:33:41 +0000";
layers = (
{
layerId = "376BBDDA-9D91-4870-B0ED-D827125DC94B";
paths = (
{
closed = 1;
nodes = (
"117 656 OFFCURVE",
"107 656 OFFCURVE",
"107 632 CURVE SMOOTH",
"107 474 OFFCURVE",
"109 250 OFFCURVE",
"109 67 CURVE SMOOTH",
"109 36 OFFCURVE",
"118 36 OFFCURVE",
"45 32 CURVE",
"45 -3 LINE",
"50 -2 LINE",
"124 0 OFFCURVE",
"208 0 OFFCURVE",
"585 0 CURVE",
"585 150 LINE",
"555 150 LINE",
"533 90 OFFCURVE",
"515 50 OFFCURVE",
"413 47 CURVE SMOOTH",
"204 41 LINE",
"202 625 LINE",
"202 656 OFFCURVE",
"203 657 OFFCURVE",
"314 668 CURVE",
"314 703 LINE",
"220 701 OFFCURVE",
"120 700 OFFCURVE",
"40 703 CURVE",
"40 668 LINE"
);
}
);
width = 595;
}
);
leftMetricsKey = "=H";
unicode = 004C;
},
{
color = 3;
glyphname = M;
lastChange = "2019-04-24 15:33:41 +0000";
layers = (
{
guideLines = (
{
angle = 270;
position = "{75, 663}";
}
);
layerId = "376BBDDA-9D91-4870-B0ED-D827125DC94B";
paths = (
{
closed = 1;
nodes = (
"796 124 LINE SMOOTH",
"813 54 OFFCURVE",
"806 42 OFFCURVE",
"766 32 CURVE",
"766 -3 LINE",
"845 1 OFFCURVE",
"966 0 OFFCURVE",
"1022 -3 CURVE",
"1022 32 LINE",
"911 37 OFFCURVE",
"918 48 OFFCURVE",
"897 136 CURVE SMOOTH",
"773 666 LINE",
"883 668 LINE",
"883 703 LINE",
"822 699 OFFCURVE",
"655 700 OFFCURVE",
"569 703 CURVE",
"569 668 LINE",
"656 662 OFFCURVE",
"670 644 OFFCURVE",
"694 546 CURVE SMOOTH"
);
},
{
closed = 1;
nodes = (
"255 608 LINE",
"104 136 LINE SMOOTH",
"82 66 OFFCURVE",
"56 40 OFFCURVE",
"25 32 CURVE",
"25 -3 LINE",
"91 1 OFFCURVE",
"211 0 OFFCURVE",
"283 -3 CURVE",
"283 32 LINE",
"178 35 OFFCURVE",
"156 55 OFFCURVE",
"183 161 CURVE SMOOTH",
"289 579 LINE"
);
},
{
closed = 1;
nodes = (
"692 598 LINE",
"504 132 LINE",
"541 140 LINE",
"308 703 LINE",
"249 700 OFFCURVE",
"133 699 OFFCURVE",
"94 703 CURVE",
"94 668 LINE",
"207 655 OFFCURVE",
"220 646 OFFCURVE",
"243 587 CURVE SMOOTH",
"292 463 OFFCURVE",
"433 182 OFFCURVE",
"481 -3 CURVE",
"513 -6 LINE",
"712 527 LINE"
);
}
);
width = 1057;
}
);
unicode = 004D;
},
{
color = 3;
glyphname = N;
lastChange = "2019-04-24 15:33:41 +0000";
layers = (
{
layerId = "376BBDDA-9D91-4870-B0ED-D827125DC94B";
paths = (
{
closed = 1;
nodes = (
"640 699 OFFCURVE",
"574 703 CURVE",
"574 668 LINE",
"674 661 OFFCURVE",
"698 666 OFFCURVE",
"700 574 CURVE SMOOTH",
"709 144 LINE",
"191 658 LINE",
"308 670 LINE",
"308 703 LINE",
"233 700 OFFCURVE",
"104 699 OFFCURVE",
"40 703 CURVE",
"40 668 LINE",
"121 662 OFFCURVE",
"118 665 OFFCURVE",
"116 575 CURVE SMOOTH",
"105 85 LINE SMOOTH",
"104 33 OFFCURVE",
"86 42 OFFCURVE",
"46 32 CURVE",
"46 -3 LINE",
"120 1 OFFCURVE",
"242 1 OFFCURVE",
"308 -3 CURVE",
"308 32 LINE",
"193 40 OFFCURVE",
"190 34 OFFCURVE",
"188 93 CURVE SMOOTH",
"174 536 LINE",
"356 363 OFFCURVE",
"540 182 OFFCURVE",
"712 2 CURVE",
"772 -2 LINE",
"766 170 OFFCURVE",
"773 402 OFFCURVE",
"777 604 CURVE SMOOTH",
"778 660 OFFCURVE",
"774 661 OFFCURVE",
"837 668 CURVE",
"837 703 LINE",
"796 700 OFFCURVE"
);
}
);
width = 881;
}
);
leftMetricsKey = H;
unicode = 004E;
},
{
color = 3;
glyphname = O;
lastChange = "2019-04-20 12:24:49 +0000";
layers = (
{
layerId = "376BBDDA-9D91-4870-B0ED-D827125DC94B";
paths = (
{
closed = 1;
nodes = (
"158 167 OFFCURVE",
"158 326 CURVE SMOOTH",
"158 497 OFFCURVE",
"242 672 OFFCURVE",
"451 672 CURVE SMOOTH",
"626 672 OFFCURVE",
"727 525 OFFCURVE",
"727 350 CURVE SMOOTH",
"727 188 OFFCURVE",
"635 29 OFFCURVE",
"437 29 CURVE SMOOTH",
"269 29 OFFCURVE"
);
},
{
closed = 1;
nodes = (
"654 -10 OFFCURVE",
"842 133 OFFCURVE",
"842 351 CURVE SMOOTH",
"842 577 OFFCURVE",
"644 710 OFFCURVE",
"441 710 CURVE SMOOTH",
"237 710 OFFCURVE",
"40 567 OFFCURVE",
"40 351 CURVE SMOOTH",
"40 133 OFFCURVE",
"227 -10 OFFCURVE",
"441 -10 CURVE SMOOTH"
);
}
);
width = 882;
}
);
unicode = 004F;
},
{
color = 3;
glyphname = P;
lastChange = "2019-04-24 15:33:41 +0000";
layers = (
{
layerId = "376BBDDA-9D91-4870-B0ED-D827125DC94B";
paths = (
{
closed = 1;
nodes = (
"223 703 OFFCURVE",
"123 697 OFFCURVE",
"40 703 CURVE",
"40 668 LINE",
"123 662 OFFCURVE",
"120 663 OFFCURVE",
"120 566 CURVE SMOOTH",
"119 101 LINE SMOOTH",
"119 36 OFFCURVE",
"116 37 OFFCURVE",
"40 31 CURVE",
"40 -3 LINE",
"135 1 OFFCURVE",
"282 1 OFFCURVE",
"380 -3 CURVE",
"380 37 LINE",
"222 49 LINE",
"217 172 OFFCURVE",
"214 297 OFFCURVE",
"214 394 CURVE SMOOTH",
"214 486 OFFCURVE",
"215 583 OFFCURVE",
"216 662 CURVE",
"384 683 OFFCURVE",
"517 637 OFFCURVE",
"517 494 CURVE SMOOTH",
"517 370 OFFCURVE",
"434 313 OFFCURVE",
"264 319 CURVE",
"257 287 LINE",
"466 269 OFFCURVE",
"622 328 OFFCURVE",
"622 489 CURVE SMOOTH",
"622 629 OFFCURVE",
"525 703 OFFCURVE",
"363 703 CURVE SMOOTH"
);
}
);
width = 657;
}
);
leftMetricsKey = "=H";
unicode = 0050;
},
{
color = 3;
glyphname = Q;
lastChange = "2019-04-24 15:33:41 +0000";
layers = (
{
layerId = "376BBDDA-9D91-4870-B0ED-D827125DC94B";
paths = (
{
closed = 1;
nodes = (
"848 23 OFFCURVE",
"785 -113 OFFCURVE",
"607 -113 CURVE SMOOTH",
"509 -113 OFFCURVE",
"453 -40 OFFCURVE",
"460 20 CURVE",
"335 12 LINE",
"365 -128 OFFCURVE",
"471 -200 OFFCURVE",
"580 -200 CURVE SMOOTH",
"748 -200 OFFCURVE",
"867 -32 OFFCURVE",
"960 -32 CURVE SMOOTH",
"997 -32 OFFCURVE",
"1003 -63 OFFCURVE",
"1012 -86 CURVE",
"1040 -80 LINE",
"1024 15 LINE"
);
},
{
closed = 1;
nodes = (
"397 29 CURVE SMOOTH",
"199 29 OFFCURVE",
"107 188 OFFCURVE",
"107 350 CURVE SMOOTH",
"107 525 OFFCURVE",
"208 672 OFFCURVE",
"383 672 CURVE SMOOTH",
"592 672 OFFCURVE",
"676 497 OFFCURVE",
"676 326 CURVE SMOOTH",
"676 167 OFFCURVE",
"565 29 OFFCURVE"
);
},
{
closed = 1;
nodes = (
"607 -10 OFFCURVE",
"794 133 OFFCURVE",
"794 351 CURVE SMOOTH",
"794 567 OFFCURVE",
"597 710 OFFCURVE",
"393 710 CURVE SMOOTH",
"256 710 OFFCURVE",
"116 649 OFFCURVE",
"40 540 CURVE",
"43 158 LINE",
"118 52 OFFCURVE",
"252 -10 OFFCURVE",
"393 -10 CURVE SMOOTH"
);
}
);
width = 1009;
}
);
leftMetricsKey = O;
unicode = 0051;
},
{
color = 3;
glyphname = Q.ss01;
lastChange = "2019-04-20 12:27:28 +0000";
layers = (
{
layerId = "376BBDDA-9D91-4870-B0ED-D827125DC94B";
paths = (
{
closed = 1;
nodes = (
"40 225 OFFCURVE",
"108 133 OFFCURVE",
"195 62 CURVE SMOOTH",
"326 -44 OFFCURVE",
"526 -154 OFFCURVE",
"611 -154 CURVE SMOOTH",
"689 -154 OFFCURVE",
"756 -117 OFFCURVE",
"781 -48 CURVE",
"766 -33 LINE",
"744 -56 OFFCURVE",
"709 -74 OFFCURVE",
"658 -73 CURVE SMOOTH",
"556 -71 OFFCURVE",
"455 -48 OFFCURVE",
"376 -5 CURVE",
"397 -8 OFFCURVE",
"419 -10 OFFCURVE",
"441 -10 CURVE SMOOTH",
"654 -10 OFFCURVE",
"842 133 OFFCURVE",
"842 351 CURVE SMOOTH",
"842 577 OFFCURVE",
"644 710 OFFCURVE",
"441 710 CURVE SMOOTH",
"237 710 OFFCURVE",
"40 567 OFFCURVE",
"40 351 CURVE SMOOTH"
);
},
{
closed = 1;
nodes = (
"158 497 OFFCURVE",
"242 672 OFFCURVE",
"451 672 CURVE SMOOTH",
"626 672 OFFCURVE",
"727 525 OFFCURVE",
"727 350 CURVE SMOOTH",
"727 188 OFFCURVE",
"635 29 OFFCURVE",
"437 29 CURVE SMOOTH",
"269 29 OFFCURVE",
"158 167 OFFCURVE",
"158 326 CURVE SMOOTH"
);
}
);
width = 882;
}
);
leftMetricsKey = "=O";
rightMetricsKey = "=O";
},
{
color = 3;
glyphname = Q_strok;
lastChange = "2019-03-11 21:20:57 +0000";
layers = (
{
components = (
{
name = Q;
}
);
layerId = "376BBDDA-9D91-4870-B0ED-D827125DC94B";
paths = (
{
closed = 1;
nodes = (
"496 -57 LINE",
"607 -20 OFFCURVE",
"667 -80 OFFCURVE",
"610 -135 CURVE",
"645 -130 LINE",
"742 -22 OFFCURVE",
"639 17 OFFCURVE",
"496 -35 CURVE"
);
}
);
width = 1045;
}
);
},
{
color = 3;
glyphname = R;
lastChange = "2019-04-24 15:33:41 +0000";
layers = (
{
layerId = "376BBDDA-9D91-4870-B0ED-D827125DC94B";
paths = (
{
closed = 1;
nodes = (
"109 662 OFFCURVE",
"107 662 OFFCURVE",
"107 613 CURVE SMOOTH",
"109 78 LINE SMOOTH",
"109 37 OFFCURVE",
"118 37 OFFCURVE",
"45 33 CURVE",
"45 -3 LINE",
"124 0 OFFCURVE",
"279 0 OFFCURVE",
"279 -3 CURVE",
"279 32 LINE",
"196 35 OFFCURVE",
"203 39 OFFCURVE",
"203 80 CURVE SMOOTH",
"203 287 LINE",
"290 287 LINE",
"345 178 OFFCURVE",
"434 -5 OFFCURVE",
"618 -5 CURVE SMOOTH",
"710 -5 OFFCURVE",
"749 17 OFFCURVE",
"770 33 CURVE",
"770 128 LINE",
"750 131 LINE",
"722 99 OFFCURVE",
"666 85 OFFCURVE",
"634 85 CURVE SMOOTH",
"512 85 OFFCURVE",
"418 206 OFFCURVE",
"385 300 CURVE",
"466 322 OFFCURVE",
"571 381 OFFCURVE",
"571 500 CURVE SMOOTH",
"571 676 OFFCURVE",
"403 700 OFFCURVE",
"295 700 CURVE SMOOTH",
"242 700 OFFCURVE",
"77 702 OFFCURVE",
"40 703 CURVE",
"40 668 LINE"
);
},
{
closed = 1;
nodes = (
"203 666 LINE",
"325 682 OFFCURVE",
"466 641 OFFCURVE",
"466 496 CURVE SMOOTH",
"466 391 OFFCURVE",
"394 322 OFFCURVE",
"243 322 CURVE SMOOTH",
"203 322 LINE"
);
}
);
width = 780;
}
);
leftMetricsKey = "=H";
unicode = 0052;
},
{
color = 3;
glyphname = R_rot_ring;
lastChange = "2019-04-24 15:33:41 +0000";
layers = (
{
layerId = "376BBDDA-9D91-4870-B0ED-D827125DC94B";
paths = (
{
closed = 1;
nodes = (
"87 667 OFFCURVE",
"155 696 OFFCURVE",
"241 696 CURVE SMOOTH",
"409 696 OFFCURVE",
"527 613 OFFCURVE",
"527 470 CURVE SMOOTH",
"527 316 OFFCURVE",
"354 147 OFFCURVE",
"127 27 CURVE",
"137 43 LINE",
"302 72 OFFCURVE",
"416 55 OFFCURVE",
"577 55 CURVE SMOOTH",
"677 55 OFFCURVE",
"755 78 OFFCURVE",
"825 126 CURVE",
"905 107 LINE",
"908 93 LINE",
"835 25 OFFCURVE",
"714 -17 OFFCURVE",
"585 -15 CURVE SMOOTH",
"481 -13 OFFCURVE",
"402 2 OFFCURVE",
"272 5 CURVE SMOOTH",
"196 7 OFFCURVE",
"132 2 OFFCURVE",
"64 -10 CURVE",
"20 16 LINE",
"20 30 LINE",
"195 107 OFFCURVE",
"409 274 OFFCURVE",
"409 453 CURVE SMOOTH",
"409 557 OFFCURVE",
"342 640 OFFCURVE",
"223 640 CURVE SMOOTH",
"143 640 OFFCURVE",
"93 615 OFFCURVE",
"47 589 CURVE",
"29 627 LINE"
);
},
{
closed = 1;
nodes = (
"742 475 OFFCURVE",
"707 512 OFFCURVE",
"707 557 CURVE SMOOTH",
"707 602 OFFCURVE",
"742 638 OFFCURVE",
"787 638 CURVE SMOOTH",
"832 638 OFFCURVE",
"867 602 OFFCURVE",
"867 557 CURVE SMOOTH",
"867 512 OFFCURVE",
"832 475 OFFCURVE",
"787 475 CURVE SMOOTH"
);
},
{
closed = 1;
nodes = (
"850 429 OFFCURVE",
"902 485 OFFCURVE",
"902 553 CURVE SMOOTH",
"902 620 OFFCURVE",
"850 676 OFFCURVE",
"788 676 CURVE SMOOTH",
"725 676 OFFCURVE",
"673 620 OFFCURVE",
"673 553 CURVE SMOOTH",
"673 485 OFFCURVE",
"725 429 OFFCURVE",
"788 429 CURVE SMOOTH"
);
}
);
width = 938;
}
);
},
{
color = 3;
glyphname = S;
lastChange = "2019-04-24 15:33:41 +0000";
layers = (
{
layerId = "376BBDDA-9D91-4870-B0ED-D827125DC94B";
paths = (
{
closed = 1;
nodes = (
"521 614 OFFCURVE",
"534 557 OFFCURVE",
"543 488 CURVE",
"508 488 LINE",
"491 590 OFFCURVE",
"403 670 OFFCURVE",
"287 670 CURVE SMOOTH",
"186 670 OFFCURVE",
"119 609 OFFCURVE",
"119 544 CURVE SMOOTH",
"119 461 OFFCURVE",
"185 435 OFFCURVE",
"325 402 CURVE SMOOTH",
"484 364 OFFCURVE",
"557 315 OFFCURVE",
"557 191 CURVE SMOOTH",
"557 61 OFFCURVE",
"450 -9 OFFCURVE",
"309 -9 CURVE SMOOTH",
"229 -9 OFFCURVE",
"130 9 OFFCURVE",
"82 17 CURVE",
"72 210 LINE",
"106 210 LINE",
"127 100 OFFCURVE",
"186 32 OFFCURVE",
"298 31 CURVE SMOOTH",
"410 30 OFFCURVE",
"476 80 OFFCURVE",
"476 156 CURVE SMOOTH",
"476 247 OFFCURVE",
"400 276 OFFCURVE",
"271 305 CURVE SMOOTH",
"109 341 OFFCURVE",
"40 386 OFFCURVE",
"40 505 CURVE SMOOTH",
"40 655 OFFCURVE",
"166 710 OFFCURVE",
"326 710 CURVE SMOOTH",
"391 710 OFFCURVE",
"452 700 OFFCURVE",
"525 694 CURVE"
);
}
);
width = 605;
}
);
unicode = 0053;
},
{
color = 3;
glyphname = T;
lastChange = "2019-04-24 15:33:41 +0000";
layers = (
{
layerId = "376BBDDA-9D91-4870-B0ED-D827125DC94B";
paths = (
{
closed = 1;
nodes = (
"30 516 LINE",
"65 516 LINE",
"71 600 OFFCURVE",
"65 607 OFFCURVE",
"143 607 CURVE SMOOTH",
"568 607 LINE SMOOTH",
"636 607 OFFCURVE",
"629 606 OFFCURVE",
"654 519 CURVE",
"687 526 LINE",
"647 734 LINE",
"601 730 LINE",
"615 670 OFFCURVE",
"616 670 OFFCURVE",
"537 670 CURVE SMOOTH",
"133 670 LINE SMOOTH",
"72 670 OFFCURVE",
"68 678 OFFCURVE",
"68 726 CURVE",
"28 726 LINE"
);
},
{
closed = 1;
nodes = (
"308 617 LINE",
"308 149 LINE SMOOTH",
"308 40 OFFCURVE",
"308 40 OFFCURVE",
"229 32 CURVE",
"229 -3 LINE",
"303 0 OFFCURVE",
"454 1 OFFCURVE",
"535 -3 CURVE",
"535 32 LINE",
"403 41 OFFCURVE",
"403 41 OFFCURVE",
"403 107 CURVE SMOOTH",
"403 617 LINE"
);
}
);
width = 737;
}
);
unicode = 0054;
},
{
color = 6;
glyphname = U;
lastChange = "2019-04-22 14:51:06 +0000";
layers = (
{
layerId = "376BBDDA-9D91-4870-B0ED-D827125DC94B";
paths = (
{
closed = 1;
nodes = (
"117 658 OFFCURVE",
"117 661 OFFCURVE",
"117 627 CURVE SMOOTH",
"117 254 LINE SMOOTH",
"117 101 OFFCURVE",
"199 -10 OFFCURVE",
"449 -10 CURVE SMOOTH",
"630 -10 OFFCURVE",
"745 112 OFFCURVE",
"745 263 CURVE SMOOTH",
"745 622 LINE",
"745 623 LINE SMOOTH",
"745 663 OFFCURVE",
"746 662 OFFCURVE",
"819 667 CURVE",
"819 703 LINE",
"740 700 OFFCURVE",
"622 700 OFFCURVE",
"582 703 CURVE",
"582 666 LINE",
"688 659 OFFCURVE",
"688 659 OFFCURVE",
"688 618 CURVE SMOOTH",
"688 269 LINE SMOOTH",
"688 108 OFFCURVE",
"574 36 OFFCURVE",
"454 36 CURVE SMOOTH",
"275 36 OFFCURVE",
"213 128 OFFCURVE",
"213 276 CURVE SMOOTH",
"213 627 LINE SMOOTH",
"213 658 OFFCURVE",
"254 658 OFFCURVE",
"335 669 CURVE",
"335 703 LINE",
"271 701 OFFCURVE",
"120 701 OFFCURVE",
"40 704 CURVE",
"40 670 LINE"
);
}
);
width = 878;
}
);
leftMetricsKey = I;
rightMetricsKey = I;
unicode = 0055;
},
{
color = 3;
glyphname = V;
lastChange = "2019-04-24 15:33:41 +0000";
layers = (
{
guideLines = (
{
angle = 270;
position = "{470, 103}";
}
);
layerId = "376BBDDA-9D91-4870-B0ED-D827125DC94B";
paths = (
{
closed = 1;
nodes = (
"232 564 LINE SMOOTH",
"192 640 OFFCURVE",
"190 646 OFFCURVE",
"272 673 CURVE",
"266 708 LINE",
"33 692 LINE",
"35 663 LINE",
"66 645 OFFCURVE",
"86 617 OFFCURVE",
"131 532 CURVE SMOOTH",
"218 367 OFFCURVE",
"393 60 OFFCURVE",
"429 -7 CURVE",
"487 -2 LINE",
"785 601 LINE SMOOTH",
"812 656 OFFCURVE",
"820 668 OFFCURVE",
"880 668 CURVE",
"880 703 LINE",
"788 700 OFFCURVE",
"730 699 OFFCURVE",
"636 703 CURVE",
"636 668 LINE",
"748 662 OFFCURVE",
"728 654 OFFCURVE",
"689 565 CURVE SMOOTH",
"461 43 LINE",
"486 79 LINE"
);
}
);
width = 903;
}
);
unicode = 0056;
},
{
color = 6;
glyphname = W;
lastChange = "2019-03-12 17:21:06 +0000";
layers = (
{
layerId = "376BBDDA-9D91-4870-B0ED-D827125DC94B";
paths = (
{
closed = 1;
nodes = (
"236 564 LINE SMOOTH",
"200 644 OFFCURVE",
"192 646 OFFCURVE",
"274 673 CURVE",
"270 708 LINE",
"30 690 LINE",
"32 661 LINE",
"63 643 OFFCURVE",
"83 617 OFFCURVE",
"128 532 CURVE SMOOTH",
"215 367 OFFCURVE",
"350 60 OFFCURVE",
"386 -7 CURVE",
"444 -2 LINE",
"702 601 LINE SMOOTH",
"726 657 OFFCURVE",
"737 668 OFFCURVE",
"797 668 CURVE",
"797 703 LINE",
"705 700 OFFCURVE",
"647 699 OFFCURVE",
"553 703 CURVE",
"553 668 LINE",
"665 662 OFFCURVE",
"641 657 OFFCURVE",
"608 565 CURVE SMOOTH",
"418 43 LINE",
"443 110 LINE"
);
},
{
closed = 1;
nodes = (
"588 390 LINE",
"766 -7 LINE",
"824 -2 LINE",
"1122 601 LINE SMOOTH",
"1149 656 OFFCURVE",
"1157 668 OFFCURVE",
"1217 668 CURVE",
"1217 703 LINE",
"1125 700 OFFCURVE",
"1067 699 OFFCURVE",
"973 703 CURVE",
"973 668 LINE",
"1085 662 OFFCURVE",
"1065 654 OFFCURVE",
"1026 565 CURVE SMOOTH",
"798 43 LINE",
"823 100 LINE",
"647 510 LINE"
);
}
);
width = 1242;
}
);
unicode = 0057;
},
{
color = 3;
glyphname = X;
lastChange = "2019-04-24 15:33:41 +0000";
layers = (
{
guideLines = (
{
angle = 270;
position = "{21, 663}";
},
{
angle = 90;
position = "{899, 683}";
}
);
layerId = "376BBDDA-9D91-4870-B0ED-D827125DC94B";
paths = (
{
closed = 1;
nodes = (
"248 700 OFFCURVE",
"330 703 CURVE",
"330 668 LINE",
"275 666 OFFCURVE",
"282 657 OFFCURVE",
"319 613 CURVE SMOOTH",
"703 155 LINE SMOOTH",
"802 36 OFFCURVE",
"802 36 OFFCURVE",
"908 32 CURVE",
"908 -3 LINE",
"862 -1 OFFCURVE",
"811 0 OFFCURVE",
"768 0 CURVE SMOOTH",
"713 0 OFFCURVE",
"664 -1 OFFCURVE",
"610 -3 CURVE",
"610 32 LINE",
"671 37 OFFCURVE",
"662 45 OFFCURVE",
"624 90 CURVE SMOOTH",
"250 537 LINE SMOOTH",
"152 654 OFFCURVE",
"155 656 OFFCURVE",
"31 668 CURVE",
"31 703 LINE",
"97 699 OFFCURVE"
);
},
{
closed = 1;
nodes = (
"460 320 LINE",
"278 104 LINE SMOOTH",
"222 38 OFFCURVE",
"225 37 OFFCURVE",
"319 32 CURVE",
"319 -3 LINE",
"238 0 OFFCURVE",
"118 1 OFFCURVE",
"25 -3 CURVE",
"25 32 LINE",
"156 38 OFFCURVE",
"135 49 OFFCURVE",
"248 170 CURVE SMOOTH",
"426 362 LINE"
);
},
{
closed = 1;
nodes = (
"447 387 LINE",
"631 603 LINE SMOOTH",
"672 652 OFFCURVE",
"662 660 OFFCURVE",
"579 669 CURVE",
"579 703 LINE",
"666 700 OFFCURVE",
"786 699 OFFCURVE",
"879 703 CURVE",
"879 668 LINE",
"758 657 OFFCURVE",
"759 656 OFFCURVE",
"661 547 CURVE SMOOTH",
"474 340 LINE"
);
}
);
width = 923;
}
);
unicode = 0058;
},
{
color = 6;
glyphname = Y;
lastChange = "2019-03-12 17:21:06 +0000";
layers = (
{
layerId = "376BBDDA-9D91-4870-B0ED-D827125DC94B";
paths = (
{
closed = 1;
nodes = (
"123 656 OFFCURVE",
"146 649 OFFCURVE",
"193 567 CURVE SMOOTH",
"361 274 LINE",
"362 86 LINE SMOOTH",
"362 35 OFFCURVE",
"361 36 OFFCURVE",
"288 32 CURVE",
"288 -3 LINE",
"377 0 OFFCURVE",
"448 0 OFFCURVE",
"542 -3 CURVE",
"542 32 LINE",
"457 38 OFFCURVE",
"456 39 OFFCURVE",
"456 80 CURVE SMOOTH",
"456 270 LINE",
"626 569 LINE SMOOTH",
"665 637 OFFCURVE",
"686 653 OFFCURVE",
"735 666 CURVE",
"735 702 LINE",
"667 698 OFFCURVE",
"609 698 OFFCURVE",
"511 702 CURVE",
"511 666 LINE",
"589 657 OFFCURVE",
"616 645 OFFCURVE",
"568 560 CURVE SMOOTH",
"406 276 LINE",
"455 302 LINE",
"291 580 LINE SMOOTH",
"250 649 OFFCURVE",
"270 660 OFFCURVE",
"332 667 CURVE",
"332 703 LINE",
"242 697 OFFCURVE",
"161 697 OFFCURVE",
"61 703 CURVE",
"61 667 LINE"
);
}
);
width = 765;
}
);
unicode = 0059;
},
{
color = 3;
glyphname = Z;
lastChange = "2019-04-24 15:33:41 +0000";
layers = (
{
layerId = "376BBDDA-9D91-4870-B0ED-D827125DC94B";
paths = (
{
closed = 1;
nodes = (
"601 98 OFFCURVE",
"571 51 OFFCURVE",
"415 46 CURVE SMOOTH",
"149 37 LINE",
"142 17 LINE",
"322 243 OFFCURVE",
"619 643 OFFCURVE",
"690 678 CURVE",
"677 714 LINE",
"664 707 OFFCURVE",
"318 703 OFFCURVE",
"79 701 CURVE",
"75 626 OFFCURVE",
"66 557 OFFCURVE",
"60 482 CURVE",
"95 479 LINE",
"145 643 OFFCURVE",
"206 655 OFFCURVE",
"343 658 CURVE SMOOTH",
"597 664 LINE",
"561 693 LINE",
"16 19 LINE",
"22 -2 LINE",
"225 1 OFFCURVE",
"450 4 OFFCURVE",
"653 -3 CURVE",
"652 76 OFFCURVE",
"654 150 OFFCURVE",
"663 224 CURVE",
"628 225 LINE"
);
}
);
width = 726;
}
);
unicode = 005A;
},
{
color = 4;
glyphname = a;
lastChange = "2019-04-24 15:33:41 +0000";
layers = (
{
layerId = "376BBDDA-9D91-4870-B0ED-D827125DC94B";
paths = (
{
closed = 1;
nodes = (
"242 218 LINE",
"145 208 OFFCURVE",
"59 178 OFFCURVE",
"19 127 CURVE",
"4 68 OFFCURVE",
"34 -10 OFFCURVE",
"94 -10 CURVE SMOOTH",
"150 -10 OFFCURVE",
"223 54 OFFCURVE",
"245 75 CURVE",
"236 106 LINE",
"217 83 OFFCURVE",
"188 50 OFFCURVE",
"148 50 CURVE SMOOTH",
"108 50 OFFCURVE",
"89 88 OFFCURVE",
"99 128 CURVE",
"119 164 OFFCURVE",
"177 193 OFFCURVE",
"242 185 CURVE"
);
},
{
closed = 1;
nodes = (
"226 99 LINE",
"238 -10 LINE",
"281 -6 OFFCURVE",
"309 -3 OFFCURVE",
"356 1 CURVE",
"356 26 LINE",
"310 34 OFFCURVE",
"304 48 OFFCURVE",
"304 98 CURVE SMOOTH",
"304 137 OFFCURVE",
"306 199 OFFCURVE",
"308 276 CURVE SMOOTH",
"310 336 OFFCURVE",
"238 381 OFFCURVE",
"174 381 CURVE SMOOTH",
"91 381 OFFCURVE",
"29 328 OFFCURVE",
"15 278 CURVE",
"18 265 LINE",
"127 289 LINE",
"126 301 LINE",
"107 306 OFFCURVE",
"102 310 OFFCURVE",
"102 321 CURVE SMOOTH",
"102 339 OFFCURVE",
"121 351 OFFCURVE",
"149 351 CURVE SMOOTH",
"203 351 OFFCURVE",
"226 320 OFFCURVE",
"226 260 CURVE SMOOTH"
);
}
);
width = 361;
}
);
unicode = 0061;
},
{
color = 4;
glyphname = a_macr;
lastChange = "2019-04-24 15:33:41 +0000";
layers = (
{
layerId = "376BBDDA-9D91-4870-B0ED-D827125DC94B";
paths = (
{
closed = 1;
nodes = (
"238 195 LINE",
"151 203 OFFCURVE",
"62 183 OFFCURVE",
"22 132 CURVE",
"7 63 OFFCURVE",
"47 -10 OFFCURVE",
"117 -10 CURVE SMOOTH",
"183 -10 OFFCURVE",
"219 54 OFFCURVE",
"241 75 CURVE",
"232 106 LINE",
"213 83 OFFCURVE",
"194 49 OFFCURVE",
"144 49 CURVE SMOOTH",
"101 49 OFFCURVE",
"82 85 OFFCURVE",
"92 125 CURVE",
"112 161 OFFCURVE",
"183 188 OFFCURVE",
"238 162 CURVE"
);
},
{
closed = 1;
nodes = (
"222 99 LINE",
"234 -10 LINE",
"277 -6 OFFCURVE",
"305 -3 OFFCURVE",
"352 1 CURVE",
"352 26 LINE",
"306 34 OFFCURVE",
"300 48 OFFCURVE",
"300 98 CURVE SMOOTH",
"300 137 OFFCURVE",
"303 180 OFFCURVE",
"305 257 CURVE SMOOTH",
"307 335 OFFCURVE",
"254 381 OFFCURVE",
"170 381 CURVE SMOOTH",
"87 381 OFFCURVE",
"9 313 OFFCURVE",
"15 238 CURVE",
"18 225 LINE",
"127 249 LINE",
"126 261 LINE",
"105 266 OFFCURVE",
"79 283 OFFCURVE",
"79 304 CURVE SMOOTH",
"79 332 OFFCURVE",
"117 351 OFFCURVE",
"154 351 CURVE SMOOTH",
"199 351 OFFCURVE",
"230 320 OFFCURVE",
"227 240 CURVE SMOOTH"
);
},
{
closed = 1;
nodes = (
"42 587 LINE",
"131 660 LINE",
"166 647 OFFCURVE",
"220 635 OFFCURVE",
"236 635 CURVE SMOOTH",
"264 635 OFFCURVE",
"288 654 OFFCURVE",
"299 661 CURVE",
"323 642 LINE",
"205 552 LINE",
"170 564 OFFCURVE",
"128 577 OFFCURVE",
"109 577 CURVE SMOOTH",
"95 577 OFFCURVE",
"81 579 OFFCURVE",
"62 563 CURVE"
);
}
);
width = 357;
}
);
leftMetricsKey = a;
rightMetricsKey = a;
unicode = 0101;
},
{
color = 4;
glyphname = b;
lastChange = "2019-04-24 15:33:41 +0000";
layers = (
{
layerId = "376BBDDA-9D91-4870-B0ED-D827125DC94B";
paths = (
{
closed = 1;
nodes = (
"116 275 LINE",
"136 312 OFFCURVE",
"197 337 OFFCURVE",
"235 337 CURVE SMOOTH",
"305 337 OFFCURVE",
"374 277 OFFCURVE",
"374 187 CURVE SMOOTH",
"374 103 OFFCURVE",
"327 58 OFFCURVE",
"263 28 CURVE",
"185 28 OFFCURVE",
"132 69 OFFCURVE",
"122 110 CURVE",
"122 394 LINE SMOOTH",
"122 555 OFFCURVE",
"126 612 OFFCURVE",
"132 673 CURVE",
"119 679 LINE",
"86 643 OFFCURVE",
"60 626 OFFCURVE",
"30 597 CURVE",
"43 464 OFFCURVE",
"46 252 OFFCURVE",
"42 76 CURVE",
"77 20 OFFCURVE",
"185 -10 OFFCURVE",
"219 -10 CURVE",
"337 12 OFFCURVE",
"445 88 OFFCURVE",
"445 200 CURVE SMOOTH",
"445 320 OFFCURVE",
"354 383 OFFCURVE",
"254 383 CURVE",
"203 365 OFFCURVE",
"163 345 OFFCURVE",
"110 316 CURVE"
);
}
);
width = 465;
}
);
rightMetricsKey = o;
unicode = 0062;
},
{
color = 4;
glyphname = c;
lastChange = "2019-04-24 15:33:41 +0000";
layers = (
{
guideLines = (
{
angle = 90;
position = "{366, 406}";
}
);
layerId = "376BBDDA-9D91-4870-B0ED-D827125DC94B";
paths = (
{
closed = 1;
nodes = (
"308 58 OFFCURVE",
"280 35 OFFCURVE",
"224 35 CURVE SMOOTH",
"150 35 OFFCURVE",
"95 93 OFFCURVE",
"95 189 CURVE SMOOTH",
"95 254 OFFCURVE",
"118 295 OFFCURVE",
"149 315 CURVE",
"204 309 OFFCURVE",
"263 307 OFFCURVE",
"321 307 CURVE",
"365 370 LINE",
"363 373 LINE",
"324 371 OFFCURVE",
"224 378 OFFCURVE",
"180 378 CURVE SMOOTH",
"156 378 OFFCURVE",
"20 309 OFFCURVE",
"20 164 CURVE SMOOTH",
"20 54 OFFCURVE",
"87 -10 OFFCURVE",
"196 -10 CURVE SMOOTH",
"277 -10 OFFCURVE",
"330 41 OFFCURVE",
"346 76 CURVE",
"327 91 LINE"
);
}
);
width = 370;
}
);
leftMetricsKey = o;
unicode = 0063;
},
{
color = 4;
glyphname = c_t;
lastChange = "2019-04-24 15:33:41 +0000";
layers = (
{
layerId = "376BBDDA-9D91-4870-B0ED-D827125DC94B";
paths = (
{
closed = 1;
nodes = (
"555 370 LINE",
"559 426 OFFCURVE",
"559 450 OFFCURVE",
"559 534 CURVE SMOOTH",
"559 606 OFFCURVE",
"495 702 OFFCURVE",
"371 702 CURVE SMOOTH",
"268 702 OFFCURVE",
"212 615 OFFCURVE",
"212 541 CURVE SMOOTH",
"212 450 OFFCURVE",
"250 409 OFFCURVE",
"325 356 CURVE",
"340 374 LINE",
"294 409 OFFCURVE",
"258 457 OFFCURVE",
"258 521 CURVE SMOOTH",
"258 590 OFFCURVE",
"298 654 OFFCURVE",
"369 654 CURVE SMOOTH",
"447 654 OFFCURVE",
"498 581 OFFCURVE",
"498 491 CURVE SMOOTH",
"498 428 OFFCURVE",
"481 374 OFFCURVE",
"446 356 CURVE"
);
},
{
closed = 1;
nodes = (
"544 328 LINE",
"565 330 OFFCURVE",
"637 331 OFFCURVE",
"728 322 CURVE",
"738 370 LINE",
"544 370 LINE"
);
},
{
closed = 1;
nodes = (
"548 297 OFFCURVE",
"550 445 OFFCURVE",
"556 497 CURVE",
"529 517 LINE",
"510 427 OFFCURVE",
"477 364 OFFCURVE",
"425 347 CURVE",
"425 322 LINE",
"471 322 LINE",
"469 246 OFFCURVE",
"467 161 OFFCURVE",
"467 106 CURVE SMOOTH",
"467 26 OFFCURVE",
"515 -11 OFFCURVE",
"592 -10 CURVE SMOOTH",
"650 -9 OFFCURVE",
"701 30 OFFCURVE",
"747 76 CURVE",
"734 92 LINE",
"694 53 OFFCURVE",
"636 41 OFFCURVE",
"606 41 CURVE SMOOTH",
"553 41 OFFCURVE",
"548 85 OFFCURVE",
"548 172 CURVE SMOOTH"
);
},
{
closed = 1;
nodes = (
"322 75 OFFCURVE",
"286 35 OFFCURVE",
"222 35 CURVE SMOOTH",
"148 35 OFFCURVE",
"93 93 OFFCURVE",
"93 179 CURVE SMOOTH",
"93 264 OFFCURVE",
"136 322 OFFCURVE",
"197 337 CURVE",
"232 331 OFFCURVE",
"261 318 OFFCURVE",
"279 307 CURVE",
"330 361 LINE",
"291 377 OFFCURVE",
"242 380 OFFCURVE",
"198 380 CURVE SMOOTH",
"174 380 OFFCURVE",
"20 309 OFFCURVE",
"20 164 CURVE SMOOTH",
"20 54 OFFCURVE",
"94 -10 OFFCURVE",
"203 -10 CURVE SMOOTH",
"281 -10 OFFCURVE",
"338 41 OFFCURVE",
"374 126 CURVE",
"355 141 LINE"
);
}
);
width = 762;
}
);
leftMetricsKey = "=c";
rightMetricsKey = "=t";
unicode = EEC5;
},
{
color = 4;
glyphname = d;
lastChange = "2019-04-24 15:33:41 +0000";
layers = (
{
layerId = "376BBDDA-9D91-4870-B0ED-D827125DC94B";
paths = (
{
closed = 1;
nodes = (
"432 460 OFFCURVE",
"424 240 OFFCURVE",
"434 571 CURVE SMOOTH",
"437 668 OFFCURVE",
"439 672 OFFCURVE",
"475 673 CURVE",
"475 703 LINE",
"422 699 OFFCURVE",
"298 699 OFFCURVE",
"247 703 CURVE",
"247 674 LINE",
"350 672 OFFCURVE",
"350 672 OFFCURVE",
"350 607 CURVE SMOOTH",
"350 486 OFFCURVE",
"347 89 OFFCURVE",
"347 74 CURVE",
"357 78 LINE",
"343 -22 LINE",
"348 -27 LINE",
"392 -9 OFFCURVE",
"437 8 OFFCURVE",
"493 22 CURVE",
"493 40 LINE",
"436 53 OFFCURVE",
"426 61 OFFCURVE",
"427 129 CURVE SMOOTH"
);
},
{
closed = 1;
nodes = (
"348 136 LINE",
"347 74 OFFCURVE",
"287 39 OFFCURVE",
"240 39 CURVE SMOOTH",
"148 39 OFFCURVE",
"97 106 OFFCURVE",
"97 186 CURVE SMOOTH",
"97 286 OFFCURVE",
"159 349 OFFCURVE",
"239 349 CURVE SMOOTH",
"287 349 OFFCURVE",
"335 325 OFFCURVE",
"355 251 CURVE",
"395 353 LINE",
"326 369 OFFCURVE",
"264 381 OFFCURVE",
"252 381 CURVE SMOOTH",
"112 381 OFFCURVE",
"20 291 OFFCURVE",
"20 176 CURVE SMOOTH",
"20 46 OFFCURVE",
"111 -10 OFFCURVE",
"236 -10 CURVE",
"293 21 OFFCURVE",
"327 44 OFFCURVE",
"362 61 CURVE"
);
}
);
width = 508;
}
);
leftMetricsKey = o;
unicode = 0064;
},
{
color = 4;
glyphname = e;
lastChange = "2019-04-24 15:33:41 +0000";
layers = (
{
layerId = "376BBDDA-9D91-4870-B0ED-D827125DC94B";
paths = (
{
closed = 1;
nodes = (
"162 45 OFFCURVE",
"103 110 OFFCURVE",
"103 214 CURVE SMOOTH",
"103 257 OFFCURVE",
"107 299 OFFCURVE",
"133 324 CURVE",
"184 329 OFFCURVE",
"253 308 OFFCURVE",
"267 266 CURVE",
"299 305 LINE",
"84 170 LINE",
"93 142 LINE",
"365 313 LINE",
"365 327 LINE",
"322 342 OFFCURVE",
"222 381 OFFCURVE",
"209 381 CURVE",
"122 361 OFFCURVE",
"50 305 OFFCURVE",
"35 272 CURVE",
"27 246 OFFCURVE",
"20 217 OFFCURVE",
"20 179 CURVE SMOOTH",
"20 62 OFFCURVE",
"103 -10 OFFCURVE",
"218 -10 CURVE SMOOTH",
"256 -10 OFFCURVE",
"352 40 OFFCURVE",
"397 108 CURVE",
"376 120 LINE",
"345 76 OFFCURVE",
"302 45 OFFCURVE",
"243 45 CURVE SMOOTH"
);
}
);
width = 407;
}
);
leftMetricsKey = o;
rightKerningGroup = oe;
unicode = 0065;
},
{
color = 4;
glyphname = e_macr;
lastChange = "2019-04-20 13:09:52 +0000";
layers = (
{
layerId = "376BBDDA-9D91-4870-B0ED-D827125DC94B";
paths = (
{
closed = 1;
nodes = (
"98 561 LINE",
"192 622 LINE",
"227 609 OFFCURVE",
"281 599 OFFCURVE",
"297 599 CURVE SMOOTH",
"305 599 OFFCURVE",
"319 607 OFFCURVE",
"330 614 CURVE",
"354 595 LINE",
"266 524 LINE",
"231 536 OFFCURVE",
"179 544 OFFCURVE",
"160 544 CURVE SMOOTH",
"146 544 OFFCURVE",
"132 546 OFFCURVE",
"118 537 CURVE"
);
},
{
closed = 1;
nodes = (
"162 45 OFFCURVE",
"103 110 OFFCURVE",
"103 214 CURVE SMOOTH",
"103 257 OFFCURVE",
"107 299 OFFCURVE",
"133 324 CURVE",
"184 329 OFFCURVE",
"253 286 OFFCURVE",
"267 244 CURVE",
"299 283 LINE",
"84 190 LINE",
"93 162 LINE",
"365 280 LINE",
"365 294 LINE",
"322 309 OFFCURVE",
"222 381 OFFCURVE",
"209 381 CURVE",
"122 361 OFFCURVE",
"50 305 OFFCURVE",
"35 272 CURVE",
"27 246 OFFCURVE",
"20 217 OFFCURVE",
"20 179 CURVE SMOOTH",
"20 62 OFFCURVE",
"103 -10 OFFCURVE",
"218 -10 CURVE SMOOTH",
"256 -10 OFFCURVE",
"352 40 OFFCURVE",
"397 108 CURVE",
"376 120 LINE",
"345 76 OFFCURVE",
"302 45 OFFCURVE",
"243 45 CURVE SMOOTH"
);
}
);
width = 407;
}
);
leftMetricsKey = o;
rightMetricsKey = e;
unicode = 0113;
},
{
color = 4;
glyphname = f;
lastChange = "2019-04-24 15:33:41 +0000";
layers = (
{
layerId = "376BBDDA-9D91-4870-B0ED-D827125DC94B";
paths = (
{
closed = 1;
nodes = (
"136 469 OFFCURVE",
"137 577 OFFCURVE",
"160 616 CURVE",
"205 626 OFFCURVE",
"254 618 OFFCURVE",
"288 600 CURVE",
"321 669 LINE",
"299 680 OFFCURVE",
"245 679 OFFCURVE",
"213 679 CURVE",
"177 659 OFFCURVE",
"64 605 OFFCURVE",
"64 465 CURVE SMOOTH",
"64 411 OFFCURVE",
"67 374 OFFCURVE",
"16 335 CURVE",
"16 314 LINE",
"60 314 LINE",
"60 95 LINE SMOOTH",
"60 29 OFFCURVE",
"60 29 OFFCURVE",
"15 18 CURVE",
"15 -2 LINE",
"78 0 OFFCURVE",
"136 0 OFFCURVE",
"203 -2 CURVE",
"203 23 LINE",
"140 32 OFFCURVE",
"139 37 OFFCURVE",
"139 92 CURVE SMOOTH",
"139 314 LINE",
"256 314 LINE",
"288 349 LINE",
"290 358 LINE",
"289 360 LINE",
"141 360 LINE"
);
}
);
width = 291;
}
);
unicode = 0066;
},
{
color = 4;
glyphname = f_f;
lastChange = "2019-04-24 15:33:41 +0000";
layers = (
{
layerId = "376BBDDA-9D91-4870-B0ED-D827125DC94B";
paths = (
{
closed = 1;
nodes = (
"382 469 OFFCURVE",
"383 507 OFFCURVE",
"383 557 CURVE SMOOTH",
"383 602 OFFCURVE",
"411 611 OFFCURVE",
"428 611 CURVE SMOOTH",
"461 611 OFFCURVE",
"478 585 OFFCURVE",
"460 544 CURVE",
"474 537 LINE",
"497 555 OFFCURVE",
"526 585 OFFCURVE",
"526 621 CURVE SMOOTH",
"526 663 OFFCURVE",
"481 679 OFFCURVE",
"449 679 CURVE SMOOTH",
"392 679 OFFCURVE",
"310 605 OFFCURVE",
"310 545 CURVE SMOOTH",
"310 411 OFFCURVE",
"313 375 OFFCURVE",
"262 336 CURVE",
"262 315 LINE",
"306 315 LINE",
"306 95 LINE SMOOTH",
"306 29 OFFCURVE",
"306 29 OFFCURVE",
"271 18 CURVE",
"271 -2 LINE",
"324 0 OFFCURVE",
"382 0 OFFCURVE",
"439 -2 CURVE",
"439 23 LINE",
"386 32 OFFCURVE",
"385 37 OFFCURVE",
"385 92 CURVE SMOOTH",
"385 315 LINE",
"502 315 LINE",
"534 349 LINE",
"536 358 LINE",
"535 360 LINE",
"387 360 LINE"
);
},
{
closed = 1;
nodes = (
"135 480 OFFCURVE",
"146 544 OFFCURVE",
"189 585 CURVE",
"234 585 OFFCURVE",
"293 564 OFFCURVE",
"327 544 CURVE",
"350 583 LINE",
"308 614 OFFCURVE",
"281 640 OFFCURVE",
"222 640 CURVE SMOOTH",
"186 640 OFFCURVE",
"63 576 OFFCURVE",
"63 476 CURVE SMOOTH",
"63 422 OFFCURVE",
"66 375 OFFCURVE",
"15 336 CURVE",
"15 315 LINE",
"59 315 LINE",
"59 95 LINE SMOOTH",
"59 29 OFFCURVE",
"59 29 OFFCURVE",
"34 18 CURVE",
"34 -2 LINE",
"77 0 OFFCURVE",
"135 0 OFFCURVE",
"202 -2 CURVE",
"202 23 LINE",
"139 32 OFFCURVE",
"138 37 OFFCURVE",
"138 92 CURVE SMOOTH",
"138 315 LINE",
"285 315 LINE",
"319 358 LINE",
"318 360 LINE",
"140 360 LINE"
);
}
);
width = 506;
}
);
leftMetricsKey = "=f";
rightMetricsKey = f;
unicode = FB00;
},
{
color = 4;
glyphname = f_l;
lastChange = "2019-04-24 15:33:41 +0000";
layers = (
{
layerId = "376BBDDA-9D91-4870-B0ED-D827125DC94B";
paths = (
{
closed = 1;
nodes = (
"290 564 LINE",
"338 534 OFFCURVE",
"337 531 OFFCURVE",
"337 363 CURVE SMOOTH",
"337 171 LINE SMOOTH",
"337 36 OFFCURVE",
"337 36 OFFCURVE",
"301 19 CURVE",
"301 -1 LINE",
"459 -2 LINE",
"460 23 LINE",
"416 26 OFFCURVE",
"414 26 OFFCURVE",
"414 169 CURVE SMOOTH",
"414 323 LINE SMOOTH",
"414 554 OFFCURVE",
"420 610 OFFCURVE",
"426 671 CURVE",
"411 678 LINE",
"387 651 OFFCURVE",
"332 611 OFFCURVE",
"290 582 CURVE"
);
},
{
closed = 1;
nodes = (
"136 480 OFFCURVE",
"137 548 OFFCURVE",
"160 587 CURVE",
"205 587 OFFCURVE",
"294 564 OFFCURVE",
"328 544 CURVE",
"361 603 LINE",
"339 614 OFFCURVE",
"235 640 OFFCURVE",
"203 640 CURVE SMOOTH",
"187 640 OFFCURVE",
"64 576 OFFCURVE",
"64 476 CURVE SMOOTH",
"64 422 OFFCURVE",
"67 376 OFFCURVE",
"16 337 CURVE",
"16 316 LINE",
"60 316 LINE",
"60 95 LINE SMOOTH",
"60 29 OFFCURVE",
"60 29 OFFCURVE",
"15 18 CURVE",
"15 -2 LINE",
"78 0 OFFCURVE",
"136 0 OFFCURVE",
"203 -2 CURVE",
"203 23 LINE",
"140 32 OFFCURVE",
"139 37 OFFCURVE",
"139 92 CURVE SMOOTH",
"139 316 LINE",
"256 316 LINE",
"290 358 LINE",
"289 360 LINE",
"141 360 LINE"
);
}
);
width = 475;
}
);
leftMetricsKey = "=f";
rightMetricsKey = "=l";
unicode = FB02;
},
{
color = 4;
glyphname = g;
lastChange = "2019-04-24 15:33:41 +0000";
layers = (
{
layerId = "376BBDDA-9D91-4870-B0ED-D827125DC94B";
paths = (
{
closed = 1;
nodes = (
"26 157 OFFCURVE",
"102 121 OFFCURVE",
"201 121 CURVE SMOOTH",
"274 121 OFFCURVE",
"348 156 OFFCURVE",
"348 240 CURVE SMOOTH",
"348 270 OFFCURVE",
"333 301 OFFCURVE",
"311 320 CURVE",
"344 326 OFFCURVE",
"374 328 OFFCURVE",
"406 326 CURVE",
"413 364 LINE",
"413 370 LINE",
"330 370 OFFCURVE",
"260 381 OFFCURVE",
"210 381 CURVE SMOOTH",
"86 381 OFFCURVE",
"26 322 OFFCURVE",
"26 250 CURVE SMOOTH"
);
},
{
closed = 1;
nodes = (
"100 305 OFFCURVE",
"152 326 OFFCURVE",
"194 324 CURVE SMOOTH",
"245 322 OFFCURVE",
"283 291 OFFCURVE",
"283 231 CURVE SMOOTH",
"283 172 OFFCURVE",
"238 149 OFFCURVE",
"198 149 CURVE SMOOTH",
"141 149 OFFCURVE",
"100 199 OFFCURVE",
"100 240 CURVE SMOOTH"
);
},
{
closed = 1;
nodes = (
"158 7 LINE",
"83 -27 OFFCURVE",
"10 -66 OFFCURVE",
"10 -151 CURVE SMOOTH",
"10 -250 OFFCURVE",
"84 -290 OFFCURVE",
"207 -290 CURVE SMOOTH",
"330 -290 OFFCURVE",
"410 -202 OFFCURVE",
"410 -111 CURVE SMOOTH",
"410 -19 OFFCURVE",
"341 9 OFFCURVE",
"231 34 CURVE SMOOTH",
"148 53 OFFCURVE",
"110 61 OFFCURVE",
"110 75 CURVE SMOOTH",
"110 84 OFFCURVE",
"134 105 OFFCURVE",
"242 126 CURVE",
"153 135 LINE",
"118 111 OFFCURVE",
"33 95 OFFCURVE",
"34 86 CURVE SMOOTH",
"42 26 LINE SMOOTH",
"43 18 OFFCURVE",
"122 0 OFFCURVE",
"191 -16 CURVE SMOOTH",
"314 -44 OFFCURVE",
"370 -68 OFFCURVE",
"370 -145 CURVE SMOOTH",
"370 -209 OFFCURVE",
"303 -261 OFFCURVE",
"217 -261 CURVE SMOOTH",
"142 -261 OFFCURVE",
"78 -211 OFFCURVE",
"78 -144 CURVE SMOOTH",
"78 -87 OFFCURVE",
"100 -43 OFFCURVE",
"182 -9 CURVE"
);
}
);
width = 418;
}
);
unicode = 0067;
},
{
color = 4;
glyphname = h;
lastChange = "2019-04-24 15:33:41 +0000";
layers = (
{
layerId = "376BBDDA-9D91-4870-B0ED-D827125DC94B";
paths = (
{
closed = 1;
nodes = (
"345 87 OFFCURVE",
"405 132 OFFCURVE",
"405 221 CURVE SMOOTH",
"405 321 OFFCURVE",
"332 379 OFFCURVE",
"236 379 CURVE",
"176 370 OFFCURVE",
"112 328 OFFCURVE",
"69 319 CURVE",
"75 290 LINE",
"113 309 OFFCURVE",
"150 321 OFFCURVE",
"202 321 CURVE SMOOTH",
"296 321 OFFCURVE",
"350 260 OFFCURVE",
"350 190 CURVE SMOOTH",
"350 110 OFFCURVE",
"289 68 OFFCURVE",
"232 28 CURVE",
"286 -22 LINE",
"306 -7 LINE",
"295 5 OFFCURVE",
"294 19 OFFCURVE",
"287 33 CURVE"
);
},
{
closed = 1;
nodes = (
"97 394 LINE SMOOTH",
"97 555 OFFCURVE",
"102 605 OFFCURVE",
"118 666 CURVE",
"103 679 LINE",
"55 643 OFFCURVE",
"44 626 OFFCURVE",
"15 597 CURVE",
"28 464 OFFCURVE",
"29 176 OFFCURVE",
"25 0 CURVE",
"147 -1 LINE",
"153 24 LINE",
"99 24 OFFCURVE",
"97 24 OFFCURVE",
"97 77 CURVE SMOOTH"
);
}
);
width = 425;
}
);
leftMetricsKey = n;
rightMetricsKey = o;
unicode = 0068;
},
{
color = 4;
glyphname = i;
lastChange = "2019-04-24 15:33:41 +0000";
layers = (
{
layerId = "376BBDDA-9D91-4870-B0ED-D827125DC94B";
paths = (
{
closed = 1;
nodes = (
"58 323 OFFCURVE",
"59 323 OFFCURVE",
"58 272 CURVE SMOOTH",
"56 96 LINE SMOOTH",
"55 36 OFFCURVE",
"55 35 OFFCURVE",
"34 20 CURVE",
"34 0 LINE",
"58 2 OFFCURVE",
"143 0 OFFCURVE",
"177 0 CURVE",
"177 25 LINE",
"135 36 OFFCURVE",
"136 36 OFFCURVE",
"136 97 CURVE SMOOTH",
"136 187 OFFCURVE",
"135 268 OFFCURVE",
"149 377 CURVE",
"137 391 LINE",
"102 373 OFFCURVE",
"61 361 OFFCURVE",
"15 349 CURVE",
"17 324 LINE"
);
}
);
width = 192;
}
);
leftMetricsKey = n;
unicode = 0069;
},
{
color = 4;
glyphname = i_dieresis;
lastChange = "2019-04-20 13:06:11 +0000";
layers = (
{
components = (
{
name = period;
transform = "{1, 0, 0, 1, -39, 328}";
},
{
name = period;
transform = "{1, 0, 0, 1, 80, 328}";
}
);
layerId = "376BBDDA-9D91-4870-B0ED-D827125DC94B";
paths = (
{
closed = 1;
nodes = (
"58 339 OFFCURVE",
"59 339 OFFCURVE",
"58 288 CURVE SMOOTH",
"56 96 LINE SMOOTH",
"55 36 OFFCURVE",
"55 35 OFFCURVE",
"34 20 CURVE",
"34 0 LINE",
"58 2 OFFCURVE",
"143 0 OFFCURVE",
"177 0 CURVE",
"177 25 LINE",
"135 36 OFFCURVE",
"136 36 OFFCURVE",
"136 97 CURVE SMOOTH",
"136 187 OFFCURVE",
"135 269 OFFCURVE",
"151 366 CURVE",
"139 379 LINE",
"102 373 OFFCURVE",
"61 371 OFFCURVE",
"15 369 CURVE",
"17 340 LINE"
);
}
);
width = 176;
}
);
},
{
color = 4;
glyphname = i_macr;
lastChange = "2019-04-20 13:08:05 +0000";
layers = (
{
components = (
{
alignment = -1;
name = i;
transform = "{1, 0, 0, 1, 12, 0}";
}
);
layerId = "376BBDDA-9D91-4870-B0ED-D827125DC94B";
paths = (
{
closed = 1;
nodes = (
"15 576 LINE",
"81 634 LINE",
"113 621 OFFCURVE",
"134 603 OFFCURVE",
"149 603 CURVE SMOOTH",
"156 603 OFFCURVE",
"169 610 OFFCURVE",
"179 617 CURVE",
"201 598 LINE",
"120 527 LINE",
"89 548 OFFCURVE",
"71 562 OFFCURVE",
"54 562 CURVE SMOOTH",
"41 562 OFFCURVE",
"28 552 OFFCURVE",
"26 552 CURVE"
);
}
);
width = 216;
}
);
leftMetricsKey = "=i";
rightMetricsKey = "=i";
unicode = 012B;
},
{
color = 6;
glyphname = j;
lastChange = "2019-03-12 17:21:06 +0000";
layers = (
{
layerId = "376BBDDA-9D91-4870-B0ED-D827125DC94B";
paths = (
{
closed = 1;
nodes = (
"115 373 OFFCURVE",
"60 361 OFFCURVE",
"15 349 CURVE",
"17 324 LINE",
"58 323 OFFCURVE",
"59 323 OFFCURVE",
"58 272 CURVE SMOOTH",
"56 70 LINE SMOOTH",
"54 -96 OFFCURVE",
"40 -183 OFFCURVE",
"-37 -256 CURVE",
"-18 -282 LINE",
"72 -210 OFFCURVE",
"134 -65 OFFCURVE",
"135 7 CURVE SMOOTH",
"139 283 LINE SMOOTH",
"140 349 OFFCURVE",
"139 349 OFFCURVE",
"173 367 CURVE",
"162 391 LINE"
);
}
);
width = 209;
}
);
unicode = 006A;
},
{
color = 4;
glyphname = k;
lastChange = "2019-04-20 13:18:33 +0000";
layers = (
{
layerId = "376BBDDA-9D91-4870-B0ED-D827125DC94B";
paths = (
{
closed = 1;
nodes = (
"347 299 LINE",
"353 314 OFFCURVE",
"359 347 OFFCURVE",
"358 370 CURVE",
"336 380 OFFCURVE",
"232 378 OFFCURVE",
"204 373 CURVE",
"132 336 LINE",
"132 313 LINE",
"195 323 OFFCURVE",
"251 317 OFFCURVE",
"306 301 CURVE",
"266 252 OFFCURVE",
"216 213 OFFCURVE",
"133 176 CURVE",
"133 144 LINE",
"234 200 LINE"
);
},
{
closed = 1;
nodes = (
"204 148 OFFCURVE",
"238 59 OFFCURVE",
"276 -4 CURVE",
"295 7 OFFCURVE",
"356 17 OFFCURVE",
"378 26 CURVE",
"372 50 LINE",
"325 56 OFFCURVE",
"273 146 OFFCURVE",
"234 228 CURVE",
"153 179 LINE"
);
},
{
closed = 1;
nodes = (
"15 565 LINE",
"63 535 OFFCURVE",
"62 531 OFFCURVE",
"62 363 CURVE SMOOTH",
"62 243 OFFCURVE",
"60 120 OFFCURVE",
"57 0 CURVE",
"149 0 LINE",
"143 108 OFFCURVE",
"142 208 OFFCURVE",
"139 316 CURVE SMOOTH",
"139 547 OFFCURVE",
"145 608 OFFCURVE",
"151 669 CURVE",
"136 678 LINE",
"112 651 OFFCURVE",
"57 611 OFFCURVE",
"15 582 CURVE"
);
}
);
width = 386;
}
);
leftMetricsKey = h;
unicode = 006B;
},
{
color = 4;
glyphname = l;
lastChange = "2019-04-24 15:33:41 +0000";
layers = (
{
layerId = "376BBDDA-9D91-4870-B0ED-D827125DC94B";
paths = (
{
closed = 1;
nodes = (
"15 564 LINE",
"63 534 OFFCURVE",
"62 531 OFFCURVE",
"62 363 CURVE SMOOTH",
"62 171 LINE SMOOTH",
"62 36 OFFCURVE",
"62 36 OFFCURVE",
"26 19 CURVE",
"26 -1 LINE",
"184 -2 LINE",
"185 23 LINE",
"141 26 OFFCURVE",
"139 26 OFFCURVE",
"139 169 CURVE SMOOTH",
"139 323 LINE SMOOTH",
"139 554 OFFCURVE",
"145 610 OFFCURVE",
"151 671 CURVE",
"136 678 LINE",
"112 651 OFFCURVE",
"57 611 OFFCURVE",
"15 582 CURVE"
);
}
);
width = 200;
}
);
unicode = 006C;
},
{
color = 4;
glyphname = l_strok;
lastChange = "2019-04-23 19:10:54 +0000";
layers = (
{
layerId = "376BBDDA-9D91-4870-B0ED-D827125DC94B";
paths = (
{
closed = 1;
nodes = (
"226 564 OFFCURVE",
"252 554 OFFCURVE",
"252 508 CURVE SMOOTH",
"252 430 OFFCURVE",
"179 355 OFFCURVE",
"99 314 CURVE",
"109 286 LINE",
"222 349 OFFCURVE",
"325 471 OFFCURVE",
"308 599 CURVE",
"196 599 LINE",
"196 574 LINE"
);
},
{
closed = 1;
nodes = (
"15 564 LINE",
"63 534 OFFCURVE",
"62 531 OFFCURVE",
"62 363 CURVE SMOOTH",
"62 171 LINE SMOOTH",
"62 36 OFFCURVE",
"62 36 OFFCURVE",
"26 19 CURVE",
"26 -1 LINE",
"184 -2 LINE",
"185 23 LINE",
"141 26 OFFCURVE",
"139 26 OFFCURVE",
"139 169 CURVE SMOOTH",
"139 323 LINE SMOOTH",
"139 479 OFFCURVE",
"145 535 OFFCURVE",
"151 596 CURVE",
"136 603 LINE",
"112 596 OFFCURVE",
"57 591 OFFCURVE",
"15 582 CURVE"
);
}
);
width = 315;
}
);
leftMetricsKey = l;
unicode = A769;
},
{
color = 4;
glyphname = m;
lastChange = "2019-04-24 15:33:41 +0000";
layers = (
{
layerId = "376BBDDA-9D91-4870-B0ED-D827125DC94B";
paths = (
{
closed = 1;
nodes = (
"376 343 OFFCURVE",
"358 381 OFFCURVE",
"271 381 CURVE SMOOTH",
"251 381 OFFCURVE",
"162 341 OFFCURVE",
"124 316 CURVE",
"124 293 LINE",
"157 313 OFFCURVE",
"191 325 OFFCURVE",
"229 325 CURVE SMOOTH",
"282 325 OFFCURVE",
"293 305 OFFCURVE",
"293 237 CURVE SMOOTH",
"293 171 OFFCURVE",
"292 64 OFFCURVE",
"288 0 CURVE",
"383 0 LINE",
"379 65 OFFCURVE",
"376 149 OFFCURVE",
"376 262 CURVE SMOOTH"
);
},
{
closed = 1;
nodes = (
"369 302 LINE",
"402 318 OFFCURVE",
"425 325 OFFCURVE",
"463 324 CURVE SMOOTH",
"527 323 OFFCURVE",
"535 274 OFFCURVE",
"535 197 CURVE SMOOTH",
"535 140 OFFCURVE",
"525 49 OFFCURVE",
"510 13 CURVE",
"515 -2 LINE",
"565 0 OFFCURVE",
"608 0 OFFCURVE",
"653 -2 CURVE",
"653 23 LINE",
"604 23 OFFCURVE",
"601 42 OFFCURVE",
"601 88 CURVE SMOOTH",
"601 130 OFFCURVE",
"617 198 OFFCURVE",
"617 256 CURVE SMOOTH",
"617 325 OFFCURVE",
"573 380 OFFCURVE",
"492 380 CURVE SMOOTH",
"471 380 OFFCURVE",
"393 349 OFFCURVE",
"355 322 CURVE"
);
},
{
closed = 1;
nodes = (
"100 384 LINE",
"64 362 OFFCURVE",
"43 348 OFFCURVE",
"15 334 CURVE",
"15 309 LINE",
"51 304 OFFCURVE",
"56 291 OFFCURVE",
"56 223 CURVE SMOOTH",
"56 160 OFFCURVE",
"55 62 OFFCURVE",
"50 0 CURVE",
"142 0 LINE",
"136 89 OFFCURVE",
"134 223 OFFCURVE",
"140 310 CURVE",
"118 381 LINE"
);
}
);
width = 663;
}
);
leftMetricsKey = n;
rightMetricsKey = n;
unicode = 006D;
},
{
color = 4;
glyphname = n;
lastChange = "2019-04-20 13:13:21 +0000";
layers = (
{
layerId = "376BBDDA-9D91-4870-B0ED-D827125DC94B";
paths = (
{
closed = 1;
nodes = (
"314 0 OFFCURVE",
"411 -1 OFFCURVE",
"427 -2 CURVE",
"428 33 LINE",
"391 36 OFFCURVE",
"387 41 OFFCURVE",
"386 85 CURVE SMOOTH",
"385 117 OFFCURVE",
"393 207 OFFCURVE",
"393 265 CURVE SMOOTH",
"393 334 OFFCURVE",
"358 381 OFFCURVE",
"274 381 CURVE SMOOTH",
"252 381 OFFCURVE",
"175 336 OFFCURVE",
"132 312 CURVE",
"132 286 LINE",
"166 305 OFFCURVE",
"206 316 OFFCURVE",
"244 316 CURVE SMOOTH",
"298 316 OFFCURVE",
"311 284 OFFCURVE",
"311 217 CURVE SMOOTH",
"311 157 OFFCURVE",
"309 79 OFFCURVE",
"297 23 CURVE",
"297 -2 LINE"
);
},
{
closed = 1;
nodes = (
"127 384 LINE",
"91 362 OFFCURVE",
"53 344 OFFCURVE",
"15 334 CURVE",
"16 302 LINE",
"41 302 OFFCURVE",
"54 291 OFFCURVE",
"55 267 CURVE SMOOTH",
"56 249 OFFCURVE",
"56 226 OFFCURVE",
"56 204 CURVE SMOOTH",
"56 141 OFFCURVE",
"55 61 OFFCURVE",
"50 -2 CURVE",
"61 -1 OFFCURVE",
"130 -1 OFFCURVE",
"142 -2 CURVE",
"136 61 OFFCURVE",
"136 141 OFFCURVE",
"136 204 CURVE SMOOTH",
"136 270 OFFCURVE",
"138 312 OFFCURVE",
"145 374 CURVE"
);
}
);
width = 438;
}
);
unicode = 006E;
},
{
color = 4;
glyphname = o;
lastChange = "2019-04-24 15:33:41 +0000";
layers = (
{
layerId = "376BBDDA-9D91-4870-B0ED-D827125DC94B";
paths = (
{
closed = 1;
nodes = (
"127 381 OFFCURVE",
"20 302 OFFCURVE",
"20 180 CURVE SMOOTH",
"20 59 OFFCURVE",
"116 -10 OFFCURVE",
"237 -10 CURVE SMOOTH",
"344 -10 OFFCURVE",
"453 70 OFFCURVE",
"453 191 CURVE SMOOTH",
"453 308 OFFCURVE",
"356 381 OFFCURVE",
"234 381 CURVE SMOOTH"
);
},
{
closed = 1;
nodes = (
"152 22 OFFCURVE",
"105 105 OFFCURVE",
"105 195 CURVE SMOOTH",
"105 275 OFFCURVE",
"139 349 OFFCURVE",
"229 349 CURVE SMOOTH",
"319 349 OFFCURVE",
"368 266 OFFCURVE",
"368 176 CURVE SMOOTH",
"368 96 OFFCURVE",
"332 22 OFFCURVE",
"242 22 CURVE SMOOTH"
);
}
);
width = 473;
}
);
unicode = 006F;
},
{
color = 4;
glyphname = o_macr;
lastChange = "2019-04-24 15:33:41 +0000";
layers = (
{
components = (
{
alignment = -1;
name = macr;
transform = "{1, 0, 0, 1, -9, 0}";
}
);
layerId = "376BBDDA-9D91-4870-B0ED-D827125DC94B";
paths = (
{
closed = 1;
nodes = (
"127 381 OFFCURVE",
"53 343 OFFCURVE",
"20 281 CURVE",
"24 67 LINE",
"62 17 OFFCURVE",
"128 -10 OFFCURVE",
"204 -10 CURVE SMOOTH",
"311 -10 OFFCURVE",
"420 70 OFFCURVE",
"420 191 CURVE SMOOTH",
"420 308 OFFCURVE",
"323 381 OFFCURVE",
"201 381 CURVE SMOOTH"
);
},
{
closed = 1;
nodes = (
"119 22 OFFCURVE",
"72 105 OFFCURVE",
"72 195 CURVE SMOOTH",
"72 275 OFFCURVE",
"106 349 OFFCURVE",
"196 349 CURVE SMOOTH",
"286 349 OFFCURVE",
"335 266 OFFCURVE",
"335 176 CURVE SMOOTH",
"335 96 OFFCURVE",
"299 22 OFFCURVE",
"209 22 CURVE SMOOTH"
);
}
);
width = 440;
}
);
leftMetricsKey = o;
rightMetricsKey = o;
unicode = 014D;
},
{
color = 4;
glyphname = p;
lastChange = "2019-04-24 15:33:41 +0000";
layers = (
{
layerId = "376BBDDA-9D91-4870-B0ED-D827125DC94B";
paths = (
{
closed = 1;
nodes = (
"129 -67 OFFCURVE",
"134 190 OFFCURVE",
"137 307 CURVE",
"124 376 LINE",
"106 380 LINE",
"69 358 OFFCURVE",
"53 351 OFFCURVE",
"15 331 CURVE",
"15 306 LINE",
"52 309 OFFCURVE",
"50 279 OFFCURVE",
"52 235 CURVE SMOOTH",
"55 172 OFFCURVE",
"54 -14 OFFCURVE",
"50 -144 CURVE SMOOTH",
"47 -240 OFFCURVE",
"50 -238 OFFCURVE",
"22 -258 CURVE",
"22 -282 LINE",
"65 -279 OFFCURVE",
"121 -280 OFFCURVE",
"167 -282 CURVE",
"167 -257 LINE",
"134 -234 OFFCURVE",
"137 -234 OFFCURVE",
"134 -169 CURVE SMOOTH"
);
},
{
closed = 1;
nodes = (
"128 -1 LINE",
"157 16 OFFCURVE",
"207 -4 OFFCURVE",
"283 -14 CURVE",
"321 0 OFFCURVE",
"465 49 OFFCURVE",
"465 191 CURVE SMOOTH",
"465 307 OFFCURVE",
"369 372 OFFCURVE",
"261 381 CURVE",
"230 366 OFFCURVE",
"172 336 OFFCURVE",
"131 312 CURVE",
"126 277 LINE",
"157 302 OFFCURVE",
"199 320 OFFCURVE",
"234 320 CURVE SMOOTH",
"311 320 OFFCURVE",
"376 266 OFFCURVE",
"376 171 CURVE SMOOTH",
"376 91 OFFCURVE",
"326 22 OFFCURVE",
"256 22 CURVE SMOOTH",
"224 22 OFFCURVE",
"164 29 OFFCURVE",
"125 67 CURVE"
);
}
);
width = 485;
}
);
leftMetricsKey = n;
rightMetricsKey = o;
unicode = 0070;
},
{
color = 4;
glyphname = p_bardes;
lastChange = "2019-04-20 13:20:29 +0000";
layers = (
{
components = (
{
name = bardes;
transform = "{0.86146, -0.34749, 0.30719, 0.93726, 22, 28}";
}
);
layerId = "376BBDDA-9D91-4870-B0ED-D827125DC94B";
paths = (
{
closed = 1;
nodes = (
"134 280 LINE",
"168 298 OFFCURVE",
"208 320 OFFCURVE",
"247 320 CURVE SMOOTH",
"340 320 OFFCURVE",
"399 250 OFFCURVE",
"399 170 CURVE SMOOTH",
"399 79 OFFCURVE",
"339 27 OFFCURVE",
"246 27 CURVE SMOOTH",
"209 27 OFFCURVE",
"143 64 OFFCURVE",
"131 110 CURVE",
"132 0 LINE",
"152 -5 OFFCURVE",
"199 -10 OFFCURVE",
"238 -10 CURVE SMOOTH",
"367 -10 OFFCURVE",
"473 97 OFFCURVE",
"473 211 CURVE SMOOTH",
"473 322 OFFCURVE",
"400 381 OFFCURVE",
"276 381 CURVE SMOOTH",
"252 381 OFFCURVE",
"179 336 OFFCURVE",
"137 313 CURVE"
);
},
{
closed = 1;
nodes = (
"130 381 LINE",
"104 359 OFFCURVE",
"59 341 OFFCURVE",
"21 331 CURVE",
"23 294 LINE",
"48 294 OFFCURVE",
"57 285 OFFCURVE",
"58 261 CURVE SMOOTH",
"59 244 OFFCURVE",
"59 224 OFFCURVE",
"59 204 CURVE SMOOTH",
"59 141 OFFCURVE",
"50 -217 OFFCURVE",
"45 -280 CURVE",
"56 -279 OFFCURVE",
"153 -272 OFFCURVE",
"173 -272 CURVE",
"173 -249 LINE",
"151 -239 OFFCURVE",
"141 -234 OFFCURVE",
"140 -208 CURVE SMOOTH",
"138 -151 OFFCURVE",
"139 141 OFFCURVE",
"139 204 CURVE SMOOTH",
"139 267 OFFCURVE",
"141 309 OFFCURVE",
"148 371 CURVE"
);
}
);
width = 493;
}
);
rightMetricsKey = p;
unicode = A751;
},
{
color = 4;
glyphname = p_flour;
lastChange = "2019-04-20 13:21:16 +0000";
layers = (
{
layerId = "376BBDDA-9D91-4870-B0ED-D827125DC94B";
paths = (
{
closed = 1;
nodes = (
"76 54 OFFCURVE",
"0 9 OFFCURVE",
"0 -55 CURVE SMOOTH",
"0 -99 OFFCURVE",
"13 -121 OFFCURVE",
"33 -155 CURVE",
"98 -121 LINE",
"98 -108 LINE",
"61 -97 OFFCURVE",
"50 -77 OFFCURVE",
"50 -45 CURVE SMOOTH",
"50 -4 OFFCURVE",
"100 19 OFFCURVE",
"165 9 CURVE",
"174 45 LINE"
);
},
{
closed = 1;
nodes = (
"235 -67 OFFCURVE",
"240 190 OFFCURVE",
"243 307 CURVE",
"240 376 LINE",
"188 374 OFFCURVE",
"148 372 OFFCURVE",
"111 369 CURVE",
"111 344 LINE",
"158 347 OFFCURVE",
"156 317 OFFCURVE",
"158 273 CURVE SMOOTH",
"161 210 OFFCURVE",
"160 -14 OFFCURVE",
"156 -144 CURVE SMOOTH",
"153 -240 OFFCURVE",
"156 -238 OFFCURVE",
"128 -258 CURVE",
"128 -282 LINE",
"171 -279 OFFCURVE",
"227 -280 OFFCURVE",
"273 -282 CURVE",
"273 -257 LINE",
"240 -234 OFFCURVE",
"243 -234 OFFCURVE",
"240 -169 CURVE SMOOTH"
);
},
{
closed = 1;
nodes = (
"229 0 LINE",
"270 0 OFFCURVE",
"313 -4 OFFCURVE",
"389 -14 CURVE",
"427 0 OFFCURVE",
"564 49 OFFCURVE",
"564 191 CURVE SMOOTH",
"564 307 OFFCURVE",
"475 372 OFFCURVE",
"367 381 CURVE",
"336 366 OFFCURVE",
"278 336 OFFCURVE",
"237 312 CURVE",
"232 277 LINE",
"263 302 OFFCURVE",
"314 320 OFFCURVE",
"349 320 CURVE SMOOTH",
"426 320 OFFCURVE",
"488 266 OFFCURVE",
"488 171 CURVE SMOOTH",
"488 91 OFFCURVE",
"432 22 OFFCURVE",
"362 22 CURVE SMOOTH",
"330 22 OFFCURVE",
"270 30 OFFCURVE",
"231 38 CURVE"
);
}
);
width = 584;
}
);
rightMetricsKey = p;
unicode = A752;
},
{
color = 4;
glyphname = p_macr;
lastChange = "2019-04-24 15:33:41 +0000";
layers = (
{
layerId = "376BBDDA-9D91-4870-B0ED-D827125DC94B";
paths = (
{
closed = 1;
nodes = (
"142 122 OFFCURVE",
"142 181 OFFCURVE",
"142 204 CURVE SMOOTH",
"142 258 OFFCURVE",
"144 303 OFFCURVE",
"141 371 CURVE",
"113 370 OFFCURVE",
"61 364 OFFCURVE",
"15 361 CURVE",
"17 334 LINE",
"52 334 OFFCURVE",
"60 325 OFFCURVE",
"61 301 CURVE SMOOTH",
"62 283 OFFCURVE",
"62 -59 OFFCURVE",
"59 -195 CURVE SMOOTH",
"58 -235 OFFCURVE",
"50 -254 OFFCURVE",
"20 -254 CURVE",
"18 -284 LINE",
"49 -282 OFFCURVE",
"72 -280 OFFCURVE",
"113 -280 CURVE SMOOTH",
"144 -280 OFFCURVE",
"167 -281 OFFCURVE",
"193 -283 CURVE",
"194 -248 LINE",
"153 -250 OFFCURVE",
"143 -238 OFFCURVE",
"140 -197 CURVE SMOOTH",
"140 50 LINE SMOOTH"
);
},
{
closed = 1;
nodes = (
"131 1 LINE",
"150 -5 OFFCURVE",
"199 -10 OFFCURVE",
"241 -10 CURVE SMOOTH",
"370 -10 OFFCURVE",
"480 97 OFFCURVE",
"480 211 CURVE SMOOTH",
"480 312 OFFCURVE",
"403 381 OFFCURVE",
"279 381 CURVE SMOOTH",
"255 381 OFFCURVE",
"181 335 OFFCURVE",
"139 312 CURVE",
"137 280 LINE",
"171 298 OFFCURVE",
"211 320 OFFCURVE",
"250 320 CURVE SMOOTH",
"343 320 OFFCURVE",
"402 250 OFFCURVE",
"402 170 CURVE SMOOTH",
"402 79 OFFCURVE",
"342 27 OFFCURVE",
"249 27 CURVE SMOOTH",
"213 27 OFFCURVE",
"148 62 OFFCURVE",
"135 107 CURVE"
);
},
{
closed = 1;
nodes = (
"164 564 LINE",
"238 636 LINE",
"273 623 OFFCURVE",
"314 610 OFFCURVE",
"330 610 CURVE SMOOTH",
"338 610 OFFCURVE",
"365 611 OFFCURVE",
"406 650 CURVE",
"430 631 LINE",
"322 528 LINE",
"287 540 OFFCURVE",
"245 559 OFFCURVE",
"226 559 CURVE SMOOTH",
"212 559 OFFCURVE",
"198 549 OFFCURVE",
"184 540 CURVE"
);
}
);
width = 500;
}
);
leftMetricsKey = n;
rightMetricsKey = o;
unicode = E665;
},
{
color = 4;
glyphname = q;
lastChange = "2019-04-24 15:33:41 +0000";
layers = (
{
layerId = "376BBDDA-9D91-4870-B0ED-D827125DC94B";
paths = (
{
closed = 1;
nodes = (
"372 -293 LINE",
"464 -233 LINE",
"450 -121 OFFCURVE",
"437 200 OFFCURVE",
"463 391 CURVE",
"445 398 LINE",
"373 341 LINE",
"331 355 OFFCURVE",
"273 381 OFFCURVE",
"252 381 CURVE",
"122 381 OFFCURVE",
"20 291 OFFCURVE",
"20 171 CURVE SMOOTH",
"20 54 OFFCURVE",
"120 -10 OFFCURVE",
"241 -10 CURVE",
"295 20 OFFCURVE",
"336 38 OFFCURVE",
"371 50 CURVE",
"373 -57 OFFCURVE",
"367 -168 OFFCURVE",
"359 -284 CURVE"
);
},
{
closed = 1;
nodes = (
"144 31 OFFCURVE",
"110 116 OFFCURVE",
"110 186 CURVE SMOOTH",
"110 276 OFFCURVE",
"167 341 OFFCURVE",
"245 341 CURVE SMOOTH",
"311 341 OFFCURVE",
"367 279 OFFCURVE",
"368 226 CURVE SMOOTH",
"369 146 LINE SMOOTH",
"370 99 OFFCURVE",
"309 31 OFFCURVE",
"243 31 CURVE SMOOTH"
);
}
);
width = 494;
}
);
leftMetricsKey = o;
unicode = 0071;
},
{
color = 4;
glyphname = q_acute;
lastChange = "2019-04-20 13:26:57 +0000";
layers = (
{
components = (
{
name = q;
}
);
layerId = "376BBDDA-9D91-4870-B0ED-D827125DC94B";
paths = (
{
closed = 1;
nodes = (
"160 613 LINE",
"231 575 OFFCURVE",
"268 572 OFFCURVE",
"337 578 CURVE",
"388 536 LINE",
"384 526 LINE",
"344 527 OFFCURVE",
"304 523 OFFCURVE",
"262 521 CURVE",
"229 531 OFFCURVE",
"175 565 OFFCURVE",
"114 600 CURVE",
"114 609 LINE"
);
}
);
width = 494;
}
);
leftMetricsKey = q;
rightMetricsKey = q;
},
{
color = 4;
glyphname = q_etfin;
lastChange = "2019-01-07 14:07:02 +0000";
layers = (
{
components = (
{
name = q;
}
);
layerId = "376BBDDA-9D91-4870-B0ED-D827125DC94B";
paths = (
{
closed = 1;
nodes = (
"423 264 LINE",
"451 282 OFFCURVE",
"479 295 OFFCURVE",
"505 305 CURVE",
"526 296 OFFCURVE",
"556 277 OFFCURVE",
"569 252 CURVE",
"537 210 OFFCURVE",
"483 174 OFFCURVE",
"408 158 CURVE",
"401 114 LINE",
"427 133 OFFCURVE",
"463 147 OFFCURVE",
"489 147 CURVE SMOOTH",
"515 147 OFFCURVE",
"568 138 OFFCURVE",
"568 102 CURVE SMOOTH",
"568 41 OFFCURVE",
"478 -16 OFFCURVE",
"408 -28 CURVE",
"414 -67 LINE",
"490 -26 OFFCURVE",
"652 41 OFFCURVE",
"652 120 CURVE SMOOTH",
"652 162 OFFCURVE",
"603 182 OFFCURVE",
"552 192 CURVE",
"658 282 LINE",
"657 296 LINE",
"612 320 OFFCURVE",
"569 357 OFFCURVE",
"545 381 CURVE",
"538 381 LINE",
"497 343 OFFCURVE",
"455 313 OFFCURVE",
"414 289 CURVE"
);
}
);
width = 668;
}
);
leftMetricsKey = q;
unicode = E8BF;
},
{
color = 4;
glyphname = q_strok;
lastChange = "2019-01-16 10:11:37 +0000";
layers = (
{
components = (
{
name = q;
}
);
layerId = "376BBDDA-9D91-4870-B0ED-D827125DC94B";
paths = (
{
closed = 1;
nodes = (
"450 256 OFFCURVE",
"485 296 OFFCURVE",
"515 296 CURVE SMOOTH",
"548 296 OFFCURVE",
"590 263 OFFCURVE",
"590 226 CURVE SMOOTH",
"590 135 OFFCURVE",
"498 43 OFFCURVE",
"423 -25 CURVE",
"423 -82 LINE",
"515 33 OFFCURVE",
"660 170 OFFCURVE",
"679 274 CURVE",
"669 318 OFFCURVE",
"618 358 OFFCURVE",
"577 368 CURVE",
"531 368 OFFCURVE",
"473 306 OFFCURVE",
"414 243 CURVE",
"423 220 LINE"
);
}
);
width = 699;
}
);
leftMetricsKey = q;
rightMetricsKey = p;
unicode = A759;
},
{
color = 4;
glyphname = r;
lastChange = "2019-04-24 15:33:41 +0000";
layers = (
{
layerId = "376BBDDA-9D91-4870-B0ED-D827125DC94B";
paths = (
{
closed = 1;
nodes = (
"140 370 LINE",
"122 380 LINE",
"88 367 OFFCURVE",
"55 350 OFFCURVE",
"15 334 CURVE",
"15 311 LINE",
"72 311 OFFCURVE",
"73 309 OFFCURVE",
"73 258 CURVE SMOOTH",
"73 67 LINE SMOOTH",
"73 30 OFFCURVE",
"75 30 OFFCURVE",
"19 22 CURVE",
"19 -3 LINE",
"61 0 OFFCURVE",
"182 0 OFFCURVE",
"217 0 CURVE",
"217 25 LINE",
"154 29 OFFCURVE",
"154 29 OFFCURVE",
"154 70 CURVE SMOOTH",
"154 270 LINE"
);
},
{
closed = 1;
nodes = (
"147 238 LINE",
"170 268 OFFCURVE",
"201 284 OFFCURVE",
"212 284 CURVE SMOOTH",
"227 284 OFFCURVE",
"246 273 OFFCURVE",
"261 258 CURVE",
"303 320 LINE",
"297 350 OFFCURVE",
"266 373 OFFCURVE",
"236 380 CURVE",
"206 337 OFFCURVE",
"176 307 OFFCURVE",
"146 278 CURVE"
);
}
);
width = 308;
}
);
leftMetricsKey = n;
unicode = 0072;
},
{
color = 4;
glyphname = r.ss01;
lastChange = "2019-04-23 07:25:27 +0000";
layers = (
{
layerId = "376BBDDA-9D91-4870-B0ED-D827125DC94B";
paths = (
{
closed = 1;
nodes = (
"84 70 OFFCURVE",
"174 149 OFFCURVE",
"174 219 CURVE SMOOTH",
"174 305 OFFCURVE",
"96 329 OFFCURVE",
"30 341 CURVE",
"30 367 LINE",
"134 378 OFFCURVE",
"259 358 OFFCURVE",
"259 251 CURVE SMOOTH",
"259 183 OFFCURVE",
"166 113 OFFCURVE",
"109 57 CURVE",
"183 56 OFFCURVE",
"269 60 OFFCURVE",
"353 73 CURVE",
"355 66 LINE",
"326 -12 LINE",
"227 -3 OFFCURVE",
"127 1 OFFCURVE",
"28 0 CURVE",
"25 24 LINE"
);
}
);
width = 376;
}
);
},
{
color = 4;
glyphname = r_rot_c_dieresis;
lastChange = "2019-04-23 07:26:26 +0000";
layers = (
{
components = (
{
name = period;
transform = "{1, 0, 0, 1, 474, 268}";
},
{
name = period;
transform = "{1, 0, 0, 1, 607, 268}";
}
);
layerId = "376BBDDA-9D91-4870-B0ED-D827125DC94B";
paths = (
{
closed = 1;
nodes = (
"124 70 OFFCURVE",
"221 144 OFFCURVE",
"221 234 CURVE SMOOTH",
"221 310 OFFCURVE",
"138 368 OFFCURVE",
"30 291 CURVE",
"25 318 LINE",
"92 361 OFFCURVE",
"132 377 OFFCURVE",
"167 377 CURVE SMOOTH",
"239 376 OFFCURVE",
"299 323 OFFCURVE",
"299 251 CURVE SMOOTH",
"299 183 OFFCURVE",
"206 113 OFFCURVE",
"149 57 CURVE",
"223 56 OFFCURVE",
"279 57 OFFCURVE",
"363 63 CURVE",
"386 -12 LINE",
"287 -3 OFFCURVE",
"167 1 OFFCURVE",
"68 0 CURVE",
"65 24 LINE"
);
},
{
closed = 1;
nodes = (
"681 68 OFFCURVE",
"633 26 OFFCURVE",
"587 26 CURVE SMOOTH",
"513 26 OFFCURVE",
"457 84 OFFCURVE",
"457 179 CURVE SMOOTH",
"457 244 OFFCURVE",
"491 295 OFFCURVE",
"522 315 CURVE",
"577 319 OFFCURVE",
"664 297 OFFCURVE",
"693 287 CURVE",
"767 323 LINE",
"765 334 LINE",
"726 352 OFFCURVE",
"637 378 OFFCURVE",
"593 378 CURVE SMOOTH",
"569 378 OFFCURVE",
"393 309 OFFCURVE",
"393 164 CURVE SMOOTH",
"393 54 OFFCURVE",
"470 -10 OFFCURVE",
"579 -10 CURVE SMOOTH",
"660 -10 OFFCURVE",
"732 31 OFFCURVE",
"768 66 CURVE",
"767 78 LINE",
"700 101 LINE"
);
}
);
width = 773;
}
);
leftMetricsKey = r.ss01;
rightMetricsKey = c;
},
{
color = 4;
glyphname = s;
lastChange = "2019-04-24 15:33:41 +0000";
layers = (
{
layerId = "376BBDDA-9D91-4870-B0ED-D827125DC94B";
paths = (
{
closed = 1;
nodes = (
"310 268 LINE",
"291 267 LINE",
"261 318 OFFCURVE",
"228 356 OFFCURVE",
"165 356 CURVE SMOOTH",
"119 356 OFFCURVE",
"89 329 OFFCURVE",
"89 292 CURVE SMOOTH",
"89 255 OFFCURVE",
"109 238 OFFCURVE",
"191 224 CURVE SMOOTH",
"267 211 OFFCURVE",
"336 178 OFFCURVE",
"336 98 CURVE SMOOTH",
"336 31 OFFCURVE",
"268 -10 OFFCURVE",
"181 -10 CURVE SMOOTH",
"145 -10 OFFCURVE",
"107 -5 OFFCURVE",
"64 3 CURVE",
"41 113 LINE",
"60 121 LINE",
"92 73 OFFCURVE",
"128 14 OFFCURVE",
"191 14 CURVE SMOOTH",
"227 14 OFFCURVE",
"270 35 OFFCURVE",
"270 77 CURVE SMOOTH",
"270 124 OFFCURVE",
"228 136 OFFCURVE",
"160 150 CURVE SMOOTH",
"72 168 OFFCURVE",
"30 194 OFFCURVE",
"30 269 CURVE SMOOTH",
"30 339 OFFCURVE",
"92 381 OFFCURVE",
"162 381 CURVE SMOOTH",
"243 381 OFFCURVE",
"268 367 OFFCURVE",
"310 362 CURVE"
);
}
);
width = 356;
}
);
unicode = 0073;
},
{
color = 4;
glyphname = longs;
lastChange = "2019-04-20 16:42:22 +0000";
layers = (
{
layerId = "376BBDDA-9D91-4870-B0ED-D827125DC94B";
paths = (
{
closed = 1;
nodes = (
"138 572 OFFCURVE",
"143 583 OFFCURVE",
"162 616 CURVE",
"207 616 OFFCURVE",
"236 604 OFFCURVE",
"270 554 CURVE",
"284 554 LINE",
"291 662 LINE",
"269 673 OFFCURVE",
"237 679 OFFCURVE",
"205 679 CURVE SMOOTH",
"189 679 OFFCURVE",
"64 605 OFFCURVE",
"64 465 CURVE SMOOTH",
"64 411 OFFCURVE",
"67 376 OFFCURVE",
"16 337 CURVE",
"16 316 LINE",
"60 316 LINE",
"60 95 LINE SMOOTH",
"60 29 OFFCURVE",
"60 29 OFFCURVE",
"15 18 CURVE",
"15 -2 LINE",
"78 0 OFFCURVE",
"138 0 OFFCURVE",
"205 -2 CURVE",
"205 23 LINE",
"142 32 OFFCURVE",
"141 37 OFFCURVE",
"141 92 CURVE SMOOTH",
"139 435 LINE SMOOTH"
);
}
);
width = 240;
}
);
leftMetricsKey = "=f";
unicode = 017F;
},
{
color = 4;
glyphname = longs_i;
lastChange = "2019-04-24 15:33:41 +0000";
layers = (
{
layerId = "376BBDDA-9D91-4870-B0ED-D827125DC94B";
paths = (
{
closed = 1;
nodes = (
"137 572 OFFCURVE",
"178 636 OFFCURVE",
"247 636 CURVE SMOOTH",
"312 636 OFFCURVE",
"341 597 OFFCURVE",
"355 557 CURVE",
"425 557 LINE",
"429 578 LINE",
"398 649 OFFCURVE",
"345 679 OFFCURVE",
"262 679 CURVE SMOOTH",
"176 679 OFFCURVE",
"63 605 OFFCURVE",
"63 465 CURVE SMOOTH",
"63 411 OFFCURVE",
"66 376 OFFCURVE",
"15 337 CURVE",
"15 316 LINE",
"59 316 LINE",
"59 155 LINE SMOOTH",
"59 89 OFFCURVE",
"59 48 OFFCURVE",
"34 9 CURVE",
"34 -11 LINE",
"77 -7 OFFCURVE",
"112 -2 OFFCURVE",
"145 -1 CURVE",
"145 24 LINE",
"125 51 OFFCURVE",
"137 251 OFFCURVE",
"137 465 CURVE SMOOTH"
);
},
{
closed = 1;
nodes = (
"351 341 OFFCURVE",
"351 335 OFFCURVE",
"351 274 CURVE SMOOTH",
"351 160 OFFCURVE",
"348 77 OFFCURVE",
"338 20 CURVE",
"340 0 LINE",
"371 2 OFFCURVE",
"436 0 OFFCURVE",
"469 0 CURVE",
"469 25 LINE",
"428 36 OFFCURVE",
"428 36 OFFCURVE",
"429 97 CURVE SMOOTH",
"432 283 LINE SMOOTH",
"433 349 OFFCURVE",
"432 349 OFFCURVE",
"446 367 CURVE",
"435 391 LINE",
"398 381 OFFCURVE",
"353 374 OFFCURVE",
"268 370 CURVE",
"270 342 LINE"
);
}
);
width = 484;
}
);
leftMetricsKey = longs;
rightMetricsKey = i;
unicode = EBA2;
},
{
color = 4;
glyphname = longs_longs;
lastChange = "2019-04-23 19:08:28 +0000";
layers = (
{
layerId = "376BBDDA-9D91-4870-B0ED-D827125DC94B";
paths = (
{
closed = 1;
nodes = (
"385 507 OFFCURVE",
"386 542 OFFCURVE",
"389 574 CURVE",
"401 590 OFFCURVE",
"415 603 OFFCURVE",
"433 615 CURVE",
"457 594 OFFCURVE",
"475 574 OFFCURVE",
"484 554 CURVE",
"497 554 LINE",
"527 620 LINE",
"505 631 OFFCURVE",
"481 651 OFFCURVE",
"449 679 CURVE",
"440 677 LINE",
"399 652 OFFCURVE",
"310 591 OFFCURVE",
"310 545 CURVE SMOOTH",
"310 411 OFFCURVE",
"313 375 OFFCURVE",
"262 336 CURVE",
"262 315 LINE",
"306 315 LINE",
"306 95 LINE SMOOTH",
"306 29 OFFCURVE",
"306 29 OFFCURVE",
"271 18 CURVE",
"271 -2 LINE",
"324 0 OFFCURVE",
"382 0 OFFCURVE",
"439 -2 CURVE",
"439 23 LINE",
"386 32 OFFCURVE",
"385 37 OFFCURVE",
"385 92 CURVE SMOOTH",
"385 315 LINE SMOOTH"
);
},
{
closed = 1;
nodes = (
"141 480 OFFCURVE",
"146 544 OFFCURVE",
"189 585 CURVE",
"234 585 OFFCURVE",
"293 564 OFFCURVE",
"327 544 CURVE",
"360 593 LINE",
"318 615 OFFCURVE",
"254 631 OFFCURVE",
"222 631 CURVE SMOOTH",
"206 631 OFFCURVE",
"63 576 OFFCURVE",
"63 476 CURVE SMOOTH",
"63 422 OFFCURVE",
"66 375 OFFCURVE",
"15 336 CURVE",
"15 315 LINE",
"59 315 LINE",
"59 95 LINE SMOOTH",
"59 29 OFFCURVE",
"59 29 OFFCURVE",
"34 18 CURVE",
"34 -2 LINE",
"77 0 OFFCURVE",
"135 0 OFFCURVE",
"202 -2 CURVE",
"202 23 LINE",
"139 32 OFFCURVE",
"138 37 OFFCURVE",
"138 92 CURVE SMOOTH",
"140 360 LINE SMOOTH"
);
}
);
width = 476;
}
);
leftMetricsKey = longs;
rightMetricsKey = longs;
unicode = EBA6;
},
{
color = 4;
glyphname = longs_t;
lastChange = "2019-04-24 15:33:41 +0000";
layers = (
{
layerId = "376BBDDA-9D91-4870-B0ED-D827125DC94B";
paths = (
{
closed = 1;
nodes = (
"411 322 LINE",
"590 322 LINE",
"600 370 LINE",
"414 370 LINE"
);
},
{
closed = 1;
nodes = (
"435 519 CURVE SMOOTH",
"435 616 OFFCURVE",
"370 679 OFFCURVE",
"251 679 CURVE SMOOTH",
"165 679 OFFCURVE",
"63 605 OFFCURVE",
"63 465 CURVE SMOOTH",
"63 411 OFFCURVE",
"66 376 OFFCURVE",
"15 337 CURVE",
"15 316 LINE",
"59 316 LINE",
"59 95 LINE SMOOTH",
"59 39 OFFCURVE",
"59 39 OFFCURVE",
"34 18 CURVE",
"34 -2 LINE",
"77 0 OFFCURVE",
"135 0 OFFCURVE",
"202 -2 CURVE",
"202 23 LINE",
"139 41 OFFCURVE",
"138 46 OFFCURVE",
"138 92 CURVE SMOOTH",
"136 465 LINE SMOOTH",
"135 572 OFFCURVE",
"169 636 OFFCURVE",
"248 636 CURVE SMOOTH",
"343 636 OFFCURVE",
"370 577 OFFCURVE",
"370 477 CURVE SMOOTH",
"370 403 OFFCURVE",
"370 362 OFFCURVE",
"285 347 CURVE",
"285 322 LINE",
"351 322 LINE",
"349 246 OFFCURVE",
"351 161 OFFCURVE",
"351 106 CURVE SMOOTH",
"351 26 OFFCURVE",
"397 -12 OFFCURVE",
"474 -10 CURVE SMOOTH",
"522 -9 OFFCURVE",
"560 30 OFFCURVE",
"607 76 CURVE",
"594 92 LINE",
"553 53 OFFCURVE",
"528 41 OFFCURVE",
"488 41 CURVE SMOOTH",
"435 41 OFFCURVE",
"430 75 OFFCURVE",
"430 162 CURVE SMOOTH",
"430 293 OFFCURVE",
"435 397 OFFCURVE"
);
}
);
width = 622;
}
);
leftMetricsKey = "=f";
rightMetricsKey = t;
unicode = FB05;
},
{
color = 4;
glyphname = t;
lastChange = "2019-04-24 15:33:41 +0000";
layers = (
{
layerId = "376BBDDA-9D91-4870-B0ED-D827125DC94B";
paths = (
{
closed = 1;
nodes = (
"134 322 LINE",
"318 322 LINE",
"328 370 LINE",
"134 370 LINE"
);
},
{
closed = 1;
nodes = (
"138 291 OFFCURVE",
"150 445 OFFCURVE",
"156 497 CURVE",
"129 497 LINE",
"105 407 OFFCURVE",
"67 364 OFFCURVE",
"15 347 CURVE",
"15 322 LINE",
"61 322 LINE",
"59 246 OFFCURVE",
"57 161 OFFCURVE",
"57 106 CURVE SMOOTH",
"57 16 OFFCURVE",
"105 -12 OFFCURVE",
"182 -10 CURVE SMOOTH",
"230 -9 OFFCURVE",
"288 40 OFFCURVE",
"335 76 CURVE",
"322 92 LINE",
"281 63 OFFCURVE",
"246 41 OFFCURVE",
"201 41 CURVE SMOOTH",
"141 41 OFFCURVE",
"138 85 OFFCURVE",
"138 172 CURVE SMOOTH"
);
}
);
width = 350;
}
);
leftMetricsKey = n;
unicode = 0074;
},
{
color = 4;
glyphname = u;
lastChange = "2019-04-24 15:33:41 +0000";
layers = (
{
layerId = "376BBDDA-9D91-4870-B0ED-D827125DC94B";
paths = (
{
closed = 1;
nodes = (
"290 111 LINE",
"237 66 OFFCURVE",
"206 48 OFFCURVE",
"169 48 CURVE SMOOTH",
"129 48 OFFCURVE",
"113 97 OFFCURVE",
"113 179 CURVE SMOOTH",
"113 254 OFFCURVE",
"119 325 OFFCURVE",
"131 374 CURVE",
"128 380 LINE",
"95 375 OFFCURVE",
"48 371 OFFCURVE",
"12 370 CURVE",
"10 345 LINE",
"40 330 OFFCURVE",
"40 320 OFFCURVE",
"40 277 CURVE SMOOTH",
"40 224 OFFCURVE",
"36 173 OFFCURVE",
"36 128 CURVE SMOOTH",
"36 25 OFFCURVE",
"103 -10 OFFCURVE",
"153 -10 CURVE",
"210 21 OFFCURVE",
"258 58 OFFCURVE",
"313 80 CURVE"
);
},
{
closed = 1;
nodes = (
"286 76 LINE",
"286 -4 LINE",
"295 -10 LINE",
"332 8 OFFCURVE",
"369 22 OFFCURVE",
"411 34 CURVE",
"411 59 LINE",
"380 62 OFFCURVE",
"367 72 OFFCURVE",
"366 118 CURVE SMOOTH",
"365 187 OFFCURVE",
"369 308 OFFCURVE",
"372 376 CURVE",
"368 379 LINE",
"336 373 OFFCURVE",
"290 371 OFFCURVE",
"252 370 CURVE",
"252 345 LINE",
"284 338 OFFCURVE",
"287 320 OFFCURVE",
"287 279 CURVE SMOOTH"
);
}
);
width = 421;
}
);
unicode = 0075;
},
{
color = 4;
glyphname = v;
lastChange = "2019-04-24 15:33:41 +0000";
layers = (
{
layerId = "376BBDDA-9D91-4870-B0ED-D827125DC94B";
paths = (
{
closed = 1;
nodes = (
"218 346 LINE",
"282 328 OFFCURVE",
"278 317 OFFCURVE",
"258 270 CURVE SMOOTH",
"229 201 OFFCURVE",
"183 130 OFFCURVE",
"154 76 CURVE",
"193 54 LINE",
"154 130 OFFCURVE",
"124 195 OFFCURVE",
"95 271 CURVE SMOOTH",
"76 321 OFFCURVE",
"80 329 OFFCURVE",
"139 346 CURVE",
"139 371 LINE",
"117 371 OFFCURVE",
"18 371 OFFCURVE",
"5 371 CURVE",
"5 346 LINE",
"39 298 OFFCURVE",
"155 44 OFFCURVE",
"178 -10 CURVE",
"197 -10 LINE",
"242 87 OFFCURVE",
"359 296 OFFCURVE",
"394 346 CURVE",
"394 371 LINE",
"365 370 OFFCURVE",
"227 370 OFFCURVE",
"218 371 CURVE"
);
}
);
width = 399;
}
);
unicode = 0076;
},
{
color = 4;
glyphname = v_strok;
lastChange = "2019-04-23 19:11:13 +0000";
layers = (
{
layerId = "376BBDDA-9D91-4870-B0ED-D827125DC94B";
paths = (
{
closed = 1;
nodes = (
"234 250 LINE",
"292 291 OFFCURVE",
"399 379 OFFCURVE",
"430 379 CURVE SMOOTH",
"535 379 OFFCURVE",
"614 292 OFFCURVE",
"614 222 CURVE SMOOTH",
"614 124 OFFCURVE",
"538 62 OFFCURVE",
"394 -20 CURVE",
"383 -17 LINE",
"332 82 OFFCURVE",
"192 255 OFFCURVE",
"32 376 CURVE",
"37 524 LINE",
"47 527 LINE",
"95 445 OFFCURVE",
"357 184 OFFCURVE",
"454 33 CURVE",
"385 15 LINE",
"500 65 OFFCURVE",
"527 126 OFFCURVE",
"527 192 CURVE SMOOTH",
"527 258 OFFCURVE",
"487 314 OFFCURVE",
"416 314 CURVE SMOOTH",
"359 314 OFFCURVE",
"305 280 OFFCURVE",
"267 230 CURVE"
);
},
{
closed = 1;
nodes = (
"126 198 OFFCURVE",
"210 390 OFFCURVE",
"241 547 CURVE SMOOTH",
"249 587 OFFCURVE",
"216 601 OFFCURVE",
"188 607 CURVE",
"187 632 LINE",
"252 630 OFFCURVE",
"324 630 OFFCURVE",
"390 632 CURVE",
"390 607 LINE",
"336 597 OFFCURVE",
"306 597 OFFCURVE",
"297 556 CURVE SMOOTH",
"262 397 OFFCURVE",
"170 190 OFFCURVE",
"24 59 CURVE",
"5 72 LINE"
);
}
);
width = 619;
}
);
leftMetricsKey = v;
rightMetricsKey = v;
unicode = A75F;
},
{
color = 6;
glyphname = w;
lastChange = "2019-03-12 17:21:06 +0000";
layers = (
{
layerId = "376BBDDA-9D91-4870-B0ED-D827125DC94B";
paths = (
{
closed = 1;
nodes = (
"217 346 LINE",
"281 328 OFFCURVE",
"277 317 OFFCURVE",
"257 270 CURVE SMOOTH",
"228 201 OFFCURVE",
"188 130 OFFCURVE",
"159 76 CURVE",
"198 54 LINE",
"159 130 OFFCURVE",
"129 195 OFFCURVE",
"100 271 CURVE SMOOTH",
"81 321 OFFCURVE",
"85 329 OFFCURVE",
"144 346 CURVE",
"144 371 LINE",
"122 371 OFFCURVE",
"23 371 OFFCURVE",
"10 371 CURVE",
"10 346 LINE",
"44 298 OFFCURVE",
"160 44 OFFCURVE",
"183 -10 CURVE",
"202 -10 LINE",
"247 87 OFFCURVE",
"358 296 OFFCURVE",
"393 346 CURVE",
"393 371 LINE",
"364 370 OFFCURVE",
"226 370 OFFCURVE",
"217 371 CURVE"
);
},
{
closed = 1;
nodes = (
"296 253 LINE",
"343 159 OFFCURVE",
"403 27 OFFCURVE",
"419 -10 CURVE",
"438 -10 LINE",
"483 87 OFFCURVE",
"600 296 OFFCURVE",
"635 346 CURVE",
"635 371 LINE",
"606 370 OFFCURVE",
"468 370 OFFCURVE",
"459 371 CURVE",
"459 346 LINE",
"523 328 OFFCURVE",
"519 317 OFFCURVE",
"499 270 CURVE SMOOTH",
"470 201 OFFCURVE",
"424 130 OFFCURVE",
"395 76 CURVE",
"434 54 LINE",
"395 130 OFFCURVE",
"365 196 OFFCURVE",
"336 271 CURVE"
);
}
);
width = 645;
}
);
unicode = 0077;
},
{
color = 4;
glyphname = x;
lastChange = "2019-01-16 09:57:26 +0000";
layers = (
{
layerId = "376BBDDA-9D91-4870-B0ED-D827125DC94B";
paths = (
{
closed = 1;
nodes = (
"91 335 OFFCURVE",
"242 85 OFFCURVE",
"294 -2 CURVE",
"317 0 OFFCURVE",
"397 0 OFFCURVE",
"416 -2 CURVE",
"416 23 LINE",
"353 23 OFFCURVE",
"188 301 OFFCURVE",
"140 371 CURVE",
"106 369 OFFCURVE",
"49 369 OFFCURVE",
"10 371 CURVE",
"10 346 LINE"
);
},
{
closed = 1;
nodes = (
"22 -17 LINE",
"178 77 OFFCURVE",
"372 324 OFFCURVE",
"418 346 CURVE",
"418 371 LINE",
"394 369 OFFCURVE",
"281 369 OFFCURVE",
"254 371 CURVE",
"254 346 LINE",
"288 340 OFFCURVE",
"309 333 OFFCURVE",
"301 316 CURVE SMOOTH",
"274 258 OFFCURVE",
"132 87 OFFCURVE",
"5 -2 CURVE"
);
}
);
width = 423;
}
);
unicode = 0078;
},
{
color = 4;
glyphname = y;
lastChange = "2019-04-20 16:48:02 +0000";
layers = (
{
layerId = "376BBDDA-9D91-4870-B0ED-D827125DC94B";
paths = (
{
closed = 1;
nodes = (
"208 -3 LINE",
"168 86 OFFCURVE",
"120 175 OFFCURVE",
"89 264 CURVE SMOOTH",
"71 316 OFFCURVE",
"67 337 OFFCURVE",
"134 345 CURVE",
"134 370 LINE",
"65 368 OFFCURVE",
"-9 369 OFFCURVE",
"-25 370 CURVE",
"-25 345 LINE",
"-12 344 OFFCURVE",
"0 318 OFFCURVE",
"11 297 CURVE SMOOTH",
"187 -44 LINE"
);
},
{
closed = 1;
nodes = (
"242 109 OFFCURVE",
"91 -177 OFFCURVE",
"48 -252 CURVE",
"47 -279 LINE",
"102 -279 LINE",
"147 -177 OFFCURVE",
"297 149 OFFCURVE",
"366 281 CURVE SMOOTH",
"378 304 OFFCURVE",
"408 337 OFFCURVE",
"423 343 CURVE",
"423 371 LINE",
"396 370 OFFCURVE",
"300 369 OFFCURVE",
"238 371 CURVE",
"238 346 LINE",
"301 340 OFFCURVE",
"314 322 OFFCURVE",
"304 293 CURVE SMOOTH"
);
}
);
width = 428;
}
);
unicode = 0079;
},
{
color = 4;
glyphname = z;
lastChange = "2019-04-23 12:39:59 +0000";
layers = (
{
layerId = "376BBDDA-9D91-4870-B0ED-D827125DC94B";
paths = (
{
closed = 1;
nodes = (
"35 72 LINE",
"145 121 OFFCURVE",
"229 79 OFFCURVE",
"229 -19 CURVE SMOOTH",
"229 -102 OFFCURVE",
"143 -163 OFFCURVE",
"99 -199 CURVE SMOOTH",
"77 -217 OFFCURVE",
"49 -235 OFFCURVE",
"35 -252 CURVE",
"35 -277 OFFCURVE",
"52 -290 OFFCURVE",
"70 -290 CURVE SMOOTH",
"82 -290 OFFCURVE",
"101 -277 OFFCURVE",
"102 -258 CURVE",
"68 -244 OFFCURVE",
"91 -234 OFFCURVE",
"115 -217 CURVE SMOOTH",
"171 -178 OFFCURVE",
"300 -109 OFFCURVE",
"300 -8 CURVE SMOOTH",
"300 105 OFFCURVE",
"186 149 OFFCURVE",
"73 102 CURVE",
"88 103 LINE",
"150 169 OFFCURVE",
"237 251 OFFCURVE",
"312 314 CURVE",
"311 376 LINE",
"218 367 OFFCURVE",
"120 364 OFFCURVE",
"33 360 CURVE",
"37 282 LINE",
"104 294 OFFCURVE",
"181 292 OFFCURVE",
"248 293 CURVE",
"160 202 OFFCURVE",
"117 170 OFFCURVE",
"25 88 CURVE"
);
}
);
width = 337;
}
);
unicode = 007A;
},
{
color = 6;
glyphname = z.ss01;
lastChange = "2019-04-23 12:39:56 +0000";
layers = (
{
layerId = "376BBDDA-9D91-4870-B0ED-D827125DC94B";
paths = (
{
closed = 1;
nodes = (
"56 301 OFFCURVE",
"67 327 OFFCURVE",
"74 375 CURVE",
"221 373 OFFCURVE",
"350 375 OFFCURVE",
"397 379 CURVE",
"405 356 LINE",
"321 275 OFFCURVE",
"153 119 OFFCURVE",
"59 16 CURVE",
"84 65 LINE",
"216 68 LINE SMOOTH",
"298 70 OFFCURVE",
"319 89 OFFCURVE",
"339 127 CURVE",
"364 127 LINE",
"363 0 LINE",
"262 2 OFFCURVE",
"125 2 OFFCURVE",
"24 -2 CURVE",
"20 18 LINE",
"115 121 OFFCURVE",
"229 224 OFFCURVE",
"324 327 CURVE",
"350 310 LINE",
"187 301 LINE SMOOTH",
"136 298 OFFCURVE",
"89 280 OFFCURVE",
"66 251 CURVE",
"41 257 LINE"
);
}
);
width = 425;
}
);
},
{
color = 10;
glyphname = ampersand;
lastChange = "2019-04-20 16:49:03 +0000";
layers = (
{
layerId = "376BBDDA-9D91-4870-B0ED-D827125DC94B";
paths = (
{
closed = 1;
nodes = (
"535 98 LINE",
"462 45 OFFCURVE",
"368 -10 OFFCURVE",
"276 -10 CURVE SMOOTH",
"140 -10 OFFCURVE",
"20 43 OFFCURVE",
"20 180 CURVE SMOOTH",
"20 307 OFFCURVE",
"129 392 OFFCURVE",
"212 392 CURVE SMOOTH",
"274 392 OFFCURVE",
"297 344 OFFCURVE",
"297 319 CURVE SMOOTH",
"297 226 OFFCURVE",
"191 174 OFFCURVE",
"163 171 CURVE",
"148 195 LINE",
"216 225 OFFCURVE",
"228 256 OFFCURVE",
"228 294 CURVE SMOOTH",
"228 311 OFFCURVE",
"221 329 OFFCURVE",
"200 329 CURVE SMOOTH",
"160 329 OFFCURVE",
"110 278 OFFCURVE",
"110 194 CURVE SMOOTH",
"110 103 OFFCURVE",
"163 33 OFFCURVE",
"274 33 CURVE SMOOTH",
"372 33 OFFCURVE",
"451 67 OFFCURVE",
"521 115 CURVE"
);
},
{
closed = 1;
nodes = (
"228 404 OFFCURVE",
"229 435 OFFCURVE",
"225 473 CURVE",
"239 489 LINE",
"262 475 OFFCURVE",
"338 457 OFFCURVE",
"372 452 CURVE",
"372 378 OFFCURVE",
"391 349 OFFCURVE",
"422 320 CURVE SMOOTH",
"441 302 OFFCURVE",
"473 298 OFFCURVE",
"506 295 CURVE",
"506 278 LINE",
"479 270 OFFCURVE",
"449 264 OFFCURVE",
"422 264 CURVE SMOOTH",
"378 264 OFFCURVE",
"354 273 OFFCURVE",
"338 295 CURVE",
"338 321 OFFCURVE",
"318 418 OFFCURVE",
"308 425 CURVE",
"295 401 OFFCURVE",
"297 347 OFFCURVE",
"297 319 CURVE",
"228 359 LINE"
);
}
);
width = 545;
}
);
leftMetricsKey = e;
rightMetricsKey = e;
unicode = 0026;
},
{
color = 10;
glyphname = con;
lastChange = "2019-01-16 10:09:30 +0000";
layers = (
{
layerId = "376BBDDA-9D91-4870-B0ED-D827125DC94B";
paths = (
{
closed = 1;
nodes = (
"115 299 OFFCURVE",
"146 333 OFFCURVE",
"178 347 CURVE",
"250 334 OFFCURVE",
"300 297 OFFCURVE",
"300 197 CURVE SMOOTH",
"300 82 OFFCURVE",
"235 39 OFFCURVE",
"204 19 CURVE",
"150 42 OFFCURVE",
"106 76 OFFCURVE",
"72 119 CURVE",
"25 77 LINE",
"57 31 OFFCURVE",
"124 -11 OFFCURVE",
"194 -11 CURVE SMOOTH",
"279 -11 OFFCURVE",
"388 73 OFFCURVE",
"388 208 CURVE SMOOTH",
"388 328 OFFCURVE",
"289 380 OFFCURVE",
"200 380 CURVE SMOOTH",
"117 380 OFFCURVE",
"55 327 OFFCURVE",
"25 285 CURVE",
"83 245 LINE"
);
}
);
width = 408;
}
);
unicode = A76F;
},
{
color = 10;
glyphname = etfin;
lastChange = "2019-04-23 12:39:42 +0000";
layers = (
{
background = {
paths = (
{
closed = 1;
nodes = (
"126 371 OFFCURVE",
"76 371 OFFCURVE",
"31 373 CURVE",
"27 364 LINE",
"68 300 LINE",
"137 298 OFFCURVE",
"198 308 OFFCURVE",
"257 318 CURVE",
"177 371 LINE"
);
}
);
};
layerId = "376BBDDA-9D91-4870-B0ED-D827125DC94B";
paths = (
{
closed = 1;
nodes = (
"35 72 LINE",
"145 121 OFFCURVE",
"229 79 OFFCURVE",
"229 -19 CURVE SMOOTH",
"229 -102 OFFCURVE",
"143 -163 OFFCURVE",
"99 -199 CURVE SMOOTH",
"77 -217 OFFCURVE",
"49 -235 OFFCURVE",
"35 -252 CURVE",
"35 -277 OFFCURVE",
"52 -290 OFFCURVE",
"70 -290 CURVE SMOOTH",
"82 -290 OFFCURVE",
"101 -277 OFFCURVE",
"102 -258 CURVE",
"68 -244 OFFCURVE",
"91 -234 OFFCURVE",
"115 -217 CURVE SMOOTH",
"171 -178 OFFCURVE",
"300 -109 OFFCURVE",
"300 -8 CURVE SMOOTH",
"300 105 OFFCURVE",
"186 149 OFFCURVE",
"73 102 CURVE",
"88 103 LINE",
"150 169 OFFCURVE",
"237 251 OFFCURVE",
"312 314 CURVE",
"311 376 LINE",
"218 367 OFFCURVE",
"120 364 OFFCURVE",
"33 360 CURVE",
"37 282 LINE",
"104 294 OFFCURVE",
"181 292 OFFCURVE",
"248 293 CURVE",
"160 202 OFFCURVE",
"117 170 OFFCURVE",
"25 88 CURVE"
);
}
);
width = 337;
}
);
unicode = A76B;
},
{
color = 10;
glyphname = etfin_ring;
lastChange = "2019-01-07 11:00:11 +0000";
layers = (
{
layerId = "376BBDDA-9D91-4870-B0ED-D827125DC94B";
paths = (
{
closed = 1;
nodes = (
"86 178 LINE",
"124 198 OFFCURVE",
"142 218 OFFCURVE",
"172 218 CURVE SMOOTH",
"225 218 OFFCURVE",
"321 177 OFFCURVE",
"321 100 CURVE SMOOTH",
"321 27 OFFCURVE",
"261 -25 OFFCURVE",
"208 -42 CURVE SMOOTH",
"165 -56 OFFCURVE",
"116 -36 OFFCURVE",
"76 -25 CURVE",
"62 -50 OFFCURVE",
"57 -63 OFFCURVE",
"63 -88 CURVE",
"244 -88 OFFCURVE",
"417 -10 OFFCURVE",
"417 116 CURVE SMOOTH",
"417 209 OFFCURVE",
"289 250 OFFCURVE",
"214 259 CURVE",
"275 307 OFFCURVE",
"399 395 OFFCURVE",
"451 451 CURVE",
"451 499 LINE",
"353 513 OFFCURVE",
"237 550 OFFCURVE",
"194 559 CURVE",
"148 550 OFFCURVE",
"66 520 OFFCURVE",
"29 510 CURVE",
"37 484 LINE",
"65 489 OFFCURVE",
"103 495 OFFCURVE",
"158 495 CURVE SMOOTH",
"198 495 OFFCURVE",
"321 454 OFFCURVE",
"371 435 CURVE",
"286 349 OFFCURVE",
"190 268 OFFCURVE",
"53 204 CURVE"
);
},
{
closed = 1;
nodes = (
"611 314 OFFCURVE",
"582 344 OFFCURVE",
"582 382 CURVE SMOOTH",
"582 419 OFFCURVE",
"611 449 OFFCURVE",
"648 449 CURVE SMOOTH",
"685 449 OFFCURVE",
"714 419 OFFCURVE",
"714 382 CURVE SMOOTH",
"714 344 OFFCURVE",
"685 314 OFFCURVE",
"648 314 CURVE SMOOTH"
);
},
{
closed = 1;
nodes = (
"700 276 OFFCURVE",
"743 322 OFFCURVE",
"743 378 CURVE SMOOTH",
"743 434 OFFCURVE",
"700 480 OFFCURVE",
"649 480 CURVE SMOOTH",
"597 480 OFFCURVE",
"554 434 OFFCURVE",
"554 378 CURVE SMOOTH",
"554 322 OFFCURVE",
"597 276 OFFCURVE",
"649 276 CURVE SMOOTH"
);
}
);
width = 753;
}
);
},
{
color = 10;
glyphname = rum;
lastChange = "2019-04-24 15:33:41 +0000";
layers = (
{
layerId = "376BBDDA-9D91-4870-B0ED-D827125DC94B";
paths = (
{
closed = 1;
nodes = (
"434 0 OFFCURVE",
"538 -10 CURVE",
"568 11 OFFCURVE",
"629 83 OFFCURVE",
"602 212 CURVE",
"579 212 LINE",
"592 118 OFFCURVE",
"549 72 OFFCURVE",
"501 72 CURVE SMOOTH",
"401 72 OFFCURVE",
"324 85 OFFCURVE",
"238 85 CURVE SMOOTH",
"175 85 OFFCURVE",
"124 79 OFFCURVE",
"76 71 CURVE",
"70 32 LINE",
"132 90 OFFCURVE",
"218 172 OFFCURVE",
"218 251 CURVE SMOOTH",
"218 340 OFFCURVE",
"109 389 OFFCURVE",
"30 378 CURVE",
"24 360 LINE",
"91 352 OFFCURVE",
"146 303 OFFCURVE",
"146 228 CURVE SMOOTH",
"146 148 OFFCURVE",
"84 76 OFFCURVE",
"25 21 CURVE",
"28 0 LINE",
"74 19 OFFCURVE",
"118 24 OFFCURVE",
"192 24 CURVE SMOOTH",
"300 24 OFFCURVE"
);
},
{
closed = 1;
nodes = (
"306 -240 LINE",
"359 -151 OFFCURVE",
"381 -35 OFFCURVE",
"420 162 CURVE SMOOTH",
"453 327 OFFCURVE",
"461 333 OFFCURVE",
"600 347 CURVE",
"600 372 LINE",
"538 370 OFFCURVE",
"439 370 OFFCURVE",
"386 372 CURVE",
"376 212 OFFCURVE",
"378 149 OFFCURVE",
"367.701 82.791 CURVE SMOOTH",
"355 -3 OFFCURVE",
"296 -166 OFFCURVE",
"231 -198 CURVE",
"227 -214 LINE"
);
}
);
width = 652;
}
);
unicode = A775;
},
{
color = 10;
glyphname = section;
lastChange = "2019-01-07 11:00:11 +0000";
layers = (
{
layerId = "376BBDDA-9D91-4870-B0ED-D827125DC94B";
paths = (
{
closed = 1;
nodes = (
"333 -241 OFFCURVE",
"411 -155 OFFCURVE",
"411 -55 CURVE SMOOTH",
"411 42 OFFCURVE",
"326 85 OFFCURVE",
"251 110 CURVE SMOOTH",
"178 134 OFFCURVE",
"139 166 OFFCURVE",
"139 227 CURVE SMOOTH",
"139 274 OFFCURVE",
"165 298 OFFCURVE",
"197 324 CURVE",
"175 344 LINE",
"122 311 OFFCURVE",
"77 250 OFFCURVE",
"77 193 CURVE SMOOTH",
"77 102 OFFCURVE",
"147 59 OFFCURVE",
"212 38 CURVE SMOOTH",
"280 16 OFFCURVE",
"352 -21 OFFCURVE",
"350 -91 CURVE SMOOTH",
"348 -159 OFFCURVE",
"288 -201 OFFCURVE",
"226 -201 CURVE SMOOTH",
"151 -201 OFFCURVE",
"104 -172 OFFCURVE",
"100 -113 CURVE",
"80 -112 LINE",
"67 -202 LINE",
"103 -224 OFFCURVE",
"146 -241 OFFCURVE",
"226 -241 CURVE SMOOTH"
);
},
{
closed = 1;
nodes = (
"341 23 LINE",
"397 69 OFFCURVE",
"441 124 OFFCURVE",
"441 195 CURVE SMOOTH",
"441 297 OFFCURVE",
"347 335 OFFCURVE",
"271 360 CURVE SMOOTH",
"198 384 OFFCURVE",
"163 417 OFFCURVE",
"163 457 CURVE SMOOTH",
"163 501 OFFCURVE",
"202 536 OFFCURVE",
"252 536 CURVE SMOOTH",
"309 536 OFFCURVE",
"372 504 OFFCURVE",
"368 412 CURVE",
"387 405 LINE",
"429 500 LINE",
"385 548 OFFCURVE",
"338 576 OFFCURVE",
"261 576 CURVE SMOOTH",
"180 576 OFFCURVE",
"103 512 OFFCURVE",
"103 430 CURVE SMOOTH",
"103 350 OFFCURVE",
"167 309 OFFCURVE",
"232 288 CURVE SMOOTH",
"300 266 OFFCURVE",
"382 226 OFFCURVE",
"380 156 CURVE SMOOTH",
"379 114 OFFCURVE",
"365 86 OFFCURVE",
"330 54 CURVE"
);
}
);
width = 515;
}
);
unicode = 00A7;
},
{
color = 10;
glyphname = period;
lastChange = "2019-01-07 11:00:11 +0000";
layers = (
{
layerId = "376BBDDA-9D91-4870-B0ED-D827125DC94B";
paths = (
{
closed = 1;
nodes = (
"121 232 LINE",
"68 285 LINE",
"14 232 LINE",
"68 178 LINE"
);
}
);
width = 135;
}
);
unicode = 002E;
},
{
color = 10;
glyphname = bardes;
lastChange = "2019-04-19 15:56:47 +0000";
layers = (
{
layerId = "376BBDDA-9D91-4870-B0ED-D827125DC94B";
paths = (
{
closed = 1;
nodes = (
"317 -41 OFFCURVE",
"176 -86 OFFCURVE",
"22 -138 CURVE",
"22 -144 LINE",
"50 -156 LINE",
"183 -112 OFFCURVE",
"310 -80 OFFCURVE",
"443 -40 CURVE",
"456 15 LINE",
"451 19 LINE"
);
}
);
width = 500;
}
);
},
{
color = 10;
glyphname = macr;
lastChange = "2019-04-19 15:56:47 +0000";
layers = (
{
layerId = "376BBDDA-9D91-4870-B0ED-D827125DC94B";
paths = (
{
closed = 1;
nodes = (
"96 617 LINE",
"190 690 LINE",
"225 677 OFFCURVE",
"279 657 OFFCURVE",
"295 657 CURVE SMOOTH",
"303 657 OFFCURVE",
"317 665 OFFCURVE",
"328 672 CURVE",
"352 653 LINE",
"264 582 LINE",
"229 594 OFFCURVE",
"177 612 OFFCURVE",
"158 612 CURVE SMOOTH",
"144 612 OFFCURVE",
"130 602 OFFCURVE",
"116 593 CURVE"
);
}
